<?xml version="1.0" standalone="no"?>
<!DOCTYPE svg PUBLIC "-//W3C//DTD SVG 20010904//EN"
 "http://www.w3.org/TR/2001/REC-SVG-20010904/DTD/svg10.dtd">
<svg version="1.0" xmlns="http://www.w3.org/2000/svg"
 width="768.000000pt" height="768.000000pt" viewBox="0 0 768.000000 768.000000"
 preserveAspectRatio="xMidYMid meet">

<g transform="translate(0.000000,768.000000) scale(0.100000,-0.100000)"
fill="#000000" stroke="none">
<path d="M0 3840 l0 -3840 1536 0 c1356 0 1537 2 1550 15 19 18 35 20 32 2 -2
-9 53 -12 245 -14 212 -1 248 1 243 13 -3 9 1 14 14 14 12 0 20 7 20 16 0 9 6
14 13 11 6 -2 11 -10 9 -16 -3 -15 15 -14 22 2 3 6 4 0 2 -16 -3 -26 -1 -27
40 -27 24 0 44 5 44 10 0 6 -8 10 -17 8 -12 -2 -18 4 -19 20 -2 29 16 40 22
14 4 -15 14 -19 42 -18 30 1 36 -2 34 -16 -2 -10 2 -18 8 -18 5 0 10 4 10 10
0 6 9 6 25 0 34 -13 238 -10 247 4 4 5 2 16 -4 23 -8 10 -5 13 11 13 12 0 19
-4 16 -10 -3 -5 -1 -10 4 -10 18 0 12 17 -10 31 -18 13 -19 16 -5 34 13 17 17
18 25 5 7 -9 6 -17 -1 -21 -6 -4 -7 -8 0 -10 5 -2 12 -14 16 -25 5 -17 1 -23
-16 -29 -19 -7 -13 -9 26 -12 33 -3 52 0 58 9 8 10 11 10 15 0 3 -9 60 -12
234 -12 197 0 229 2 229 15 0 8 -7 15 -15 15 -8 0 -15 -4 -15 -10 0 -5 -4 -10
-8 -10 -4 0 -8 9 -8 20 0 28 33 26 62 -5 l22 -24 614 1 c337 1 569 4 516 8
-54 3 -101 9 -105 13 -9 10 202 -2 262 -14 30 -6 172 -9 349 -7 l300 3 12 50
12 50 -5 -53 -6 -52 167 0 166 0 -56 75 c-31 42 -55 77 -53 79 2 2 17 8 33 13
42 13 64 83 65 211 1 23 6 42 11 42 7 0 9 -20 6 -52 -3 -29 -8 -98 -12 -154
l-6 -101 44 -54 44 -54 282 -3 282 -2 0 3840 0 3840 -3840 0 -3840 0 0 -3840z
m4940 3595 c4 -5 8 -44 8 -87 0 -42 3 -81 7 -88 4 -6 2 -17 -4 -23 -14 -14
-14 -57 0 -57 8 0 8 -4 1 -12 -5 -7 -9 -37 -8 -66 0 -28 -3 -52 -8 -52 -5 0
-1 -9 8 -19 11 -12 14 -21 7 -26 -6 -3 -8 -17 -5 -32 5 -17 3 -24 -4 -19 -7 4
-10 -14 -10 -56 0 -35 -3 -85 -7 -113 -3 -27 -7 -90 -8 -140 -1 -49 -5 -95 -9
-101 -4 -6 -3 -26 2 -45 10 -34 13 -84 3 -61 -9 22 -19 12 -21 -20 -1 -47 -9
-153 -12 -153 0 0 -3 -15 -5 -34 -1 -18 -7 -36 -11 -40 -5 -3 -10 -28 -11 -56
-1 -36 1 -44 7 -30 7 16 9 17 9 3 1 -9 -4 -29 -11 -43 -10 -21 -9 -28 2 -35
11 -7 10 -16 -4 -55 -10 -25 -16 -57 -13 -71 2 -13 0 -27 -4 -30 -5 -3 -9 -18
-9 -34 0 -16 -5 -32 -11 -36 -7 -4 -7 -10 -1 -16 13 -13 3 -99 -15 -120 -8 -9
-10 -19 -5 -22 12 -7 15 -116 3 -116 -5 0 -7 -9 -4 -21 4 -12 0 -25 -7 -29
-11 -7 -11 -11 -1 -24 17 -21 6 -66 -17 -66 -14 0 -14 -2 -3 -9 8 -5 11 -16 7
-26 -3 -10 -1 -24 5 -31 9 -11 8 -14 -6 -14 -12 0 -15 -5 -11 -16 18 -47 18
-65 0 -79 -11 -8 -15 -15 -10 -15 5 0 3 -7 -4 -15 -10 -12 -10 -15 4 -15 9 0
16 -4 16 -10 0 -5 -8 -10 -17 -10 -14 0 -15 -2 -4 -9 9 -6 11 -17 7 -32 -4
-13 -10 -44 -12 -69 -3 -25 -9 -60 -14 -77 -5 -19 -5 -33 0 -33 5 0 7 -6 5
-12 -3 -7 -7 -40 -9 -73 -3 -33 -5 -63 -5 -67 -1 -3 -11 -4 -23 -1 -13 3 13
-13 57 -36 76 -41 155 -105 177 -144 5 -11 11 -39 13 -63 1 -25 9 -53 18 -62
19 -22 33 -67 18 -58 -7 5 -11 -5 -11 -28 0 -30 -6 -39 -42 -65 -24 -16 -60
-45 -82 -65 -43 -40 -51 -44 -42 -20 5 13 2 15 -15 11 -13 -4 -4 9 28 39 26
24 53 44 60 44 7 0 17 8 22 18 6 9 11 11 11 5 0 -7 7 -13 16 -13 12 0 15 6 10
23 -3 12 -6 30 -6 40 0 9 -6 17 -14 17 -11 0 -10 8 5 40 23 47 23 50 4 50 -14
0 -20 -12 -16 -34 1 -4 -7 -24 -19 -43 -11 -19 -20 -43 -20 -55 0 -25 -54 -77
-95 -91 -36 -13 -55 -30 -55 -51 0 -8 -9 -17 -19 -21 -11 -3 -22 -14 -25 -23
-2 -9 -4 6 -3 33 1 30 7 50 14 50 6 0 15 4 20 9 5 5 3 6 -4 2 -19 -11 -15 6 7
34 l21 25 -7 -27 c-7 -31 0 -34 43 -17 35 13 43 25 43 67 0 30 -2 32 -21 22
-27 -15 -36 -6 -15 15 9 9 16 23 16 31 0 8 5 14 11 14 7 0 9 12 5 33 -4 23 -1
39 10 52 15 19 15 19 10 1 -6 -16 -4 -17 9 -6 13 11 13 15 -7 32 -23 19 -23
19 -45 -9 -26 -32 -29 -53 -8 -53 8 0 15 -4 15 -10 0 -5 -4 -10 -10 -10 -5 0
-10 -9 -10 -20 0 -10 -11 -30 -25 -44 -14 -14 -25 -32 -25 -39 0 -8 -7 -17
-15 -21 -27 -10 -16 25 18 59 l33 33 -25 5 c-14 3 -29 0 -33 -6 -7 -11 -12 -2
-9 16 0 4 -3 7 -9 7 -5 0 -10 -16 -10 -36 0 -21 -4 -33 -10 -29 -5 3 -10 17
-10 31 0 19 -5 25 -17 22 -11 -2 -18 -13 -18 -25 -1 -24 -15 -45 -15 -22 -1
14 -29 -29 -30 -44 0 -5 19 -6 43 -3 40 6 33 -2 -15 -18 -10 -3 -18 -15 -18
-26 0 -11 -4 -20 -9 -20 -5 0 -14 -15 -21 -32 -7 -18 -14 -28 -17 -21 -2 7
-11 9 -19 6 -8 -3 -14 -1 -14 5 0 6 5 12 11 14 16 5 -4 73 -22 73 -16 0 -16
-72 1 -89 15 -15 12 -63 -5 -70 -8 -3 -15 -13 -15 -21 0 -9 5 -13 10 -10 6 3
10 2 10 -4 0 -5 -4 -13 -10 -16 -5 -3 -10 -14 -10 -23 0 -9 -12 -28 -25 -41
-32 -30 -34 -7 -4 44 13 21 18 42 14 53 -7 16 -8 15 -15 -3 -5 -11 -9 -14 -9
-7 -1 6 -7 12 -15 12 -11 0 -13 -7 -6 -30 6 -20 3 -45 -8 -81 -16 -49 -16 -52
1 -63 10 -6 28 -19 39 -28 12 -10 29 -18 40 -18 10 0 18 -5 18 -10 0 -6 39
-30 88 -52 48 -23 99 -50 115 -61 15 -10 52 -21 82 -24 57 -6 63 -11 43 -31
-9 -10 -8 -16 5 -29 15 -15 17 -15 23 0 8 21 20 22 27 3 4 -10 1 -13 -7 -10
-22 8 -30 -16 -12 -34 16 -16 18 -16 32 2 20 27 18 33 -16 68 -16 16 -30 32
-30 34 0 9 99 -48 115 -66 23 -26 9 -53 -26 -48 -21 3 -35 -2 -51 -19 -24 -25
-59 -34 -39 -9 9 10 8 16 -4 26 -11 9 -15 9 -15 1 0 -7 -4 -10 -10 -6 -5 3 -6
13 -3 23 4 13 3 14 -6 6 -9 -8 -9 -18 -1 -38 16 -43 12 -49 -17 -28 -16 10
-48 24 -73 31 -66 19 -214 96 -277 144 -84 65 -147 107 -159 107 -7 0 -15 21
-19 46 -5 34 -15 53 -36 71 -31 26 -40 59 -14 49 8 -3 15 -1 15 4 0 6 18 -1
40 -15 37 -23 40 -24 40 -6 0 10 7 21 15 25 8 3 15 1 15 -4 0 -6 -4 -10 -10
-10 -16 0 -11 -17 6 -24 25 -9 27 -1 14 39 -8 24 -17 35 -26 31 -11 -4 -12 4
-7 42 3 26 8 49 10 51 2 3 22 6 46 7 23 0 45 2 48 3 11 2 29 78 28 117 -2 31
-3 33 -6 11 -4 -23 -7 -26 -19 -16 -8 6 -15 26 -15 43 -1 23 -3 25 -6 9 -4
-23 -33 -33 -33 -12 0 5 5 7 10 4 6 -3 10 1 10 9 0 23 -31 19 -37 -4 -10 -38
-32 -14 -23 25 1 6 3 73 5 150 3 115 1 143 -12 157 -8 9 -12 21 -9 27 9 15
-23 73 -37 68 -25 -8 -31 -55 -18 -132 10 -63 10 -78 -3 -102 -14 -27 -14 -26
-13 32 l2 60 -55 -2 c-39 -2 -49 0 -35 7 11 5 30 9 43 9 20 1 41 25 31 36 -2
2 -23 0 -46 -5 -24 -4 -43 -3 -43 1 0 5 -4 9 -10 9 -16 0 -50 33 -67 64 -32
61 28 100 84 56 14 -11 33 -20 41 -20 23 0 8 -10 -24 -16 -16 -3 -31 -7 -33
-10 -10 -10 6 -12 39 -5 44 9 51 35 13 53 -21 11 -28 20 -26 41 2 29 -14 37
-23 12 -6 -16 -29 -20 -37 -7 -2 4 -2 1 -1 -5 5 -22 -6 -15 -47 28 -21 22 -39
35 -39 27 0 -8 -4 -7 -11 5 -5 9 -14 17 -19 17 -5 0 -7 -8 -4 -17 4 -13 0 -11
-15 6 -28 31 -37 21 -16 -19 22 -42 14 -47 -30 -21 -45 26 -53 27 -30 1 17
-18 17 -20 2 -14 -13 5 -16 2 -11 -11 6 -16 3 -17 -32 -11 -51 10 -57 14 -51
37 3 11 -1 26 -10 34 -13 13 -12 15 4 15 16 1 16 2 2 13 -9 7 -14 18 -12 25 3
6 0 12 -6 12 -6 0 -8 7 -5 15 8 20 -3 19 -33 -5 -14 -11 -29 -17 -34 -14 -5 3
-9 0 -9 -6 0 -7 -9 -23 -20 -37 -11 -14 -20 -21 -20 -14 0 6 -9 11 -20 11 -11
0 -20 -7 -20 -15 0 -8 -9 -15 -20 -15 -14 0 -21 -9 -26 -37 -6 -33 -8 -35 -15
-15 -10 28 2 61 33 87 135 114 160 127 177 98 6 -10 11 -13 11 -6 0 6 9 9 20
6 16 -4 19 -2 14 11 -4 11 -13 15 -25 11 -11 -4 -19 -2 -19 4 0 6 6 12 13 12
28 3 32 4 35 14 2 9 53 32 75 34 4 1 -2 -9 -13 -21 -19 -21 -20 -23 -3 -29 10
-4 22 -4 26 -2 4 3 16 -1 25 -8 9 -8 7 -2 -6 12 -27 31 -21 39 29 39 25 0 47
-8 67 -25 17 -14 33 -25 36 -25 25 0 169 -183 187 -238 8 -24 14 -31 22 -23
26 26 36 14 85 -99 10 -24 11 -24 11 10 1 35 -24 86 -62 128 -11 12 -18 22
-15 22 4 0 20 -15 37 -32 17 -18 39 -41 49 -51 9 -10 18 -23 18 -28 1 -5 2
-13 3 -19 0 -5 6 -10 12 -10 6 0 9 6 6 14 -5 11 2 13 31 10 65 -7 78 -13 79
-34 1 -11 -4 -20 -13 -20 -8 0 -14 -5 -14 -11 0 -7 -10 -9 -25 -5 -34 9 -50
-1 -34 -20 10 -12 9 -13 -5 -8 -17 7 -21 -3 -8 -24 14 -20 80 -53 87 -42 3 6
1 10 -4 10 -18 0 -12 45 8 68 10 12 28 22 39 22 12 0 26 9 32 20 10 18 8 19
-15 10 -16 -6 -25 -6 -25 1 0 13 19 19 66 22 l39 3 16 154 c9 85 22 211 28
280 7 69 16 159 22 200 5 41 16 152 24 245 8 94 33 361 54 595 22 234 49 542
61 685 12 143 28 316 36 385 8 69 15 134 15 145 1 11 3 14 6 8 7 -19 23 -16
24 5 1 9 4 4 6 -13 3 -16 8 -34 13 -40z m-783 -1247 c-2 -13 -4 -3 -4 22 0 25
2 35 4 23 2 -13 2 -33 0 -45z m451 55 c-16 -2 -40 -2 -55 0 -16 2 -3 4 27 4
30 0 43 -2 28 -4z m-461 -180 c-2 -16 -4 -3 -4 27 0 30 2 43 4 28 2 -16 2 -40
0 -55z m453 -33 c26 -1 31 -3 19 -10 -19 -11 -129 -1 -129 13 0 6 15 7 38 3
20 -3 53 -6 72 -6z m-451 -17 c-1 -10 -5 -31 -9 -48 -7 -27 -8 -25 -9 18 0 26
4 47 9 47 6 0 9 -8 9 -17z m-14 -93 c3 -5 1 -10 -4 -10 -6 0 -11 5 -11 10 0 6
2 10 4 10 3 0 8 -4 11 -10z m-8 -416 c-3 -3 -12 -4 -19 -1 -8 3 -5 6 6 6 11 1
17 -2 13 -5z m-437 -575 c0 -11 5 -17 10 -14 6 3 10 -1 10 -10 0 -12 -4 -14
-19 -6 -21 12 -31 5 -31 -21 0 -14 5 -18 18 -14 12 4 26 -1 37 -14 10 -11 13
-20 7 -20 -6 0 -14 5 -17 10 -11 18 -26 10 -20 -10 5 -15 3 -18 -9 -14 -11 4
-16 1 -16 -10 0 -9 -5 -16 -11 -16 -6 0 -9 -7 -5 -15 4 -13 2 -14 -14 -5 -14
7 -20 7 -20 0 0 -14 -22 -8 -37 10 -11 13 -12 13 -13 -2 0 -9 7 -23 15 -32 19
-19 19 -27 0 -20 -13 5 -14 2 -5 -21 13 -35 13 -40 -5 -25 -8 7 -15 21 -15 32
0 10 -4 17 -9 13 -5 -3 -13 -1 -16 5 -5 8 -12 7 -22 -2 -26 -21 -5 31 28 72
16 19 29 40 29 47 0 7 5 13 10 13 6 0 10 -7 10 -15 0 -8 5 -15 11 -15 7 0 8
14 4 40 -6 33 -4 40 9 40 9 0 16 -7 16 -16 0 -24 19 -7 35 32 15 37 35 38 35
3z m560 6 c14 -8 21 -14 15 -14 -5 0 -21 6 -35 14 -14 8 -20 14 -15 14 6 0 21
-6 35 -14z m-380 -61 c41 -17 59 -51 19 -39 -18 6 -19 5 -7 -14 21 -33 0 -44
-57 -30 -39 10 -45 14 -29 20 17 7 17 8 1 8 -26 1 -10 21 16 21 13 0 17 3 11
8 -13 8 -15 42 -3 42 5 0 27 -7 49 -16z m-170 -173 c17 -14 20 -21 10 -21 -13
0 -13 -1 0 -11 13 -9 13 -10 0 -6 -8 2 -15 8 -15 14 0 14 -29 40 -41 36 -6 -2
-11 3 -11 11 0 17 14 11 57 -23z m418 -32 c-22 -14 1 -23 27 -11 14 7 31 12
38 12 17 -1 -94 -49 -114 -50 -9 0 -16 7 -16 15 0 9 6 14 13 11 8 -3 11 5 9
27 -3 46 4 52 31 26 18 -17 21 -25 12 -30z m-168 10 c3 -4 14 -7 25 -6 11 1
19 -3 18 -9 -1 -7 9 -9 25 -6 19 3 24 1 17 -6 -5 -6 -21 -12 -35 -15 -23 -4
-22 -5 10 -13 l35 -8 -30 -7 c-28 -6 -28 -7 -5 -8 23 -2 22 -3 -10 -17 -31
-14 -36 -13 -47 2 -6 9 -16 13 -22 9 -14 -8 -14 28 0 42 7 7 2 9 -18 6 l-28
-5 29 20 29 20 -64 -5 c-44 -4 -61 -2 -54 5 20 21 112 22 125 1z m-416 -49
c-8 -7 -34 31 -34 49 0 10 8 4 20 -14 10 -16 17 -32 14 -35z m785 -17 c1 -7
-3 -13 -9 -13 -5 0 -7 7 -4 15 4 9 0 15 -10 15 -19 0 -21 11 -3 29 10 10 13 7
19 -11 3 -13 6 -29 7 -35z m-118 -10 c-12 -20 -14 -14 -5 12 4 9 9 14 11 11 3
-2 0 -13 -6 -23z m-691 -55 c0 -10 -4 -18 -10 -18 -16 0 -11 -27 6 -34 9 -4
14 -13 10 -22 -3 -8 -2 -13 2 -10 4 3 13 -4 20 -15 10 -16 9 -19 -6 -19 -11 0
-25 12 -32 28 l-13 27 -8 -25 c-5 -20 -7 -15 -8 23 -1 26 -5 47 -10 47 -12 0
-22 -28 -12 -34 9 -6 19 -60 25 -138 3 -38 1 -46 -11 -41 -13 5 -13 2 -4 -15
6 -11 11 -26 11 -33 0 -7 -9 3 -20 24 -11 20 -29 54 -40 74 -11 20 -24 40 -30
43 -17 11 -23 60 -7 60 8 0 14 -6 15 -12 3 -39 47 -128 62 -128 12 0 12 15 4
59 -6 26 -10 31 -28 26 -19 -5 -19 -5 -3 5 17 11 15 30 -4 30 -6 0 -7 -4 -4
-10 3 -5 1 -10 -4 -10 -19 0 -12 28 9 35 11 3 20 13 20 22 0 14 -3 14 -20 -2
-16 -14 -23 -15 -34 -6 -8 7 -21 9 -27 5 -8 -4 -9 -3 -5 4 4 7 2 12 -5 12 -21
0 33 50 86 81 l50 28 12 -22 c7 -12 12 -30 13 -39z m601 17 c-42 -19 -52 -19
-27 0 11 8 29 15 40 15 16 -1 12 -5 -13 -15z m-121 -26 c-11 -8 -5 -9 23 -4
20 3 37 3 37 0 0 -11 -70 -35 -117 -40 -40 -3 -44 -2 -27 9 10 8 28 16 39 19
17 4 16 5 -5 7 -23 1 -23 2 -5 10 11 5 31 9 45 9 20 1 22 -1 10 -10z m323 -23
c6 6 -7 -52 -18 -78 -4 -10 -11 -15 -17 -12 -5 4 -5 11 2 19 5 7 8 29 5 50 -3
30 -2 35 9 26 7 -6 15 -8 19 -5z m-985 -54 c-3 -10 1 -27 8 -37 8 -10 14 -27
14 -36 0 -10 6 -19 13 -22 9 -4 9 -7 0 -18 -16 -17 -25 -7 -28 30 -1 17 -8 37
-14 45 -7 8 -10 24 -6 36 8 25 19 27 13 2z m377 -10 c-3 -3 -11 0 -18 7 -9 10
-8 11 6 5 10 -3 15 -9 12 -12z m220 -2 c-3 -5 -13 -10 -21 -10 -8 0 -14 5 -14
10 0 6 9 10 21 10 11 0 17 -4 14 -10z m-275 -15 c11 -13 9 -15 -8 -12 -12 2
-25 7 -29 12 -5 4 -2 5 5 1 6 -4 12 -2 12 3 0 15 5 14 20 -4z m467 -22 c30
-16 85 -91 97 -131 6 -18 3 -22 -13 -22 -12 0 -22 9 -26 23 -10 31 -55 77 -77
77 -10 0 -18 6 -19 13 0 6 -2 22 -5 35 -5 26 5 28 43 5z m-387 -13 c18 -12 2
-12 -25 0 -13 6 -15 9 -5 9 8 0 22 -4 30 -9z m-166 -35 c3 -8 12 -15 21 -15
18 0 18 1 4 -41 -11 -32 -49 -80 -49 -62 0 4 -5 1 -10 -7 -7 -11 -10 -5 -10
23 0 27 -4 37 -16 37 -18 0 -14 22 6 28 8 3 10 0 5 -8 -5 -9 -4 -11 3 -6 19
11 14 26 -8 26 -11 0 -20 5 -20 10 0 6 11 8 25 4 19 -5 25 -2 25 10 0 20 16
21 24 1z m-938 -93 c-11 -10 -12 3 -7 53 l6 50 3 -49 c2 -26 1 -51 -2 -54z
m2141 66 c-3 -7 -5 -2 -5 12 0 14 2 19 5 13 2 -7 2 -19 0 -25z m-1501 -2 c-5
-19 -1 -26 14 -31 21 -7 27 -30 10 -40 -5 -3 -10 1 -10 10 0 9 -8 19 -19 22
-16 4 -17 9 -8 34 14 35 21 38 13 5z m83 -61 c14 -41 15 -52 5 -44 -24 20 -57
96 -50 116 7 17 8 17 17 0 6 -9 18 -42 28 -72z m1668 5 c6 -30 11 -84 11 -120
-1 -36 -3 -55 -5 -42 -2 12 -11 22 -19 22 -8 0 -14 5 -14 10 0 6 4 10 8 10 12
0 14 101 3 118 -5 9 -10 -4 -14 -37 -6 -50 -31 -101 -49 -101 -6 0 -23 -12
-38 -27 -53 -52 -66 -62 -93 -72 -32 -12 -28 -31 6 -31 37 0 97 20 97 33 1 7
14 28 30 47 l30 34 0 -32 c0 -20 4 -31 10 -27 6 3 10 18 10 33 0 21 2 24 10
12 5 -8 10 -23 10 -33 0 -19 -47 -66 -67 -67 -7 0 -13 -11 -13 -23 0 -22 3
-23 35 -18 24 4 42 16 56 36 l21 30 -5 -54 c-3 -35 -10 -59 -21 -66 -9 -7 -16
-17 -16 -24 0 -6 -4 -11 -10 -11 -5 0 -10 -11 -10 -25 0 -21 -4 -25 -27 -23
-16 1 -32 5 -38 9 -5 4 -23 7 -40 7 -16 0 -31 5 -33 11 -3 8 -8 6 -16 -5 -12
-15 -13 -15 -29 1 -12 12 -17 13 -17 3 -1 -8 -5 -7 -15 5 -14 20 -77 57 -95
57 -6 0 -20 9 -32 20 l-21 19 27 11 c27 10 64 14 39 3 -23 -9 -14 -31 15 -37
98 -18 102 -18 102 3 0 11 5 23 11 27 7 4 10 -6 7 -32 -3 -45 14 -56 41 -23
16 20 18 20 24 5 4 -9 3 -15 -1 -12 -5 3 -9 -1 -9 -8 0 -22 37 -5 38 18 1 17
2 17 6 4 6 -24 23 -23 23 2 0 11 -4 20 -9 20 -5 0 -12 13 -16 30 -5 24 -10 28
-24 21 -10 -6 -23 -6 -31 -1 -8 5 -21 5 -30 0 -18 -10 -70 -2 -70 11 0 5 -25
9 -55 8 -30 -1 -58 1 -62 4 -3 4 1 7 10 7 8 0 23 7 31 16 9 8 16 11 16 5 0
-15 43 -14 62 2 19 15 28 50 18 67 -6 9 -13 9 -31 0 -13 -7 3 15 36 48 60 62
79 74 69 47 -5 -11 2 -13 32 -11 35 3 39 7 46 37 3 18 4 37 2 41 -8 13 39 67
56 65 10 -1 19 -22 27 -57z m-1149 12 c2 -7 -6 -12 -17 -12 -21 0 -27 11 -14
24 9 9 26 2 31 -12z m-444 -3 c-3 -6 -1 -21 6 -34 7 -13 9 -32 6 -42 -7 -17
-8 -17 -21 1 -16 21 -10 41 7 30 7 -4 8 -2 4 4 -4 6 -13 9 -21 5 -20 -7 -19 6
2 29 18 20 28 24 17 7z m-114 -52 c0 -7 -7 -22 -15 -33 -13 -16 -16 -17 -25
-4 -13 20 -13 40 1 40 5 0 8 -4 4 -9 -3 -5 -1 -12 4 -15 5 -4 12 3 16 14 7 23
15 26 15 7z m1590 3 c0 -5 -5 -10 -11 -10 -5 0 -7 5 -4 10 3 6 8 10 11 10 2 0
4 -4 4 -10z m-1666 -32 c7 -5 4 -8 -6 -8 -12 0 -18 7 -17 23 0 15 2 17 6 7 3
-8 11 -18 17 -22z m156 -32 c0 -8 7 -19 15 -26 9 -7 13 -15 10 -18 -6 -7 -44
40 -45 56 0 7 5 10 10 7 6 -3 10 -12 10 -19z m1330 4 c0 -5 -5 -10 -11 -10 -5
0 -7 5 -4 10 3 6 8 10 11 10 2 0 4 -4 4 -10z m-1450 -51 c0 -30 -13 -28 -30 4
-12 22 -14 34 -7 39 13 8 36 -20 37 -43z m54 35 c16 -6 92 -94 81 -94 -4 0
-28 23 -55 50 -27 28 -47 50 -45 50 2 0 10 -3 19 -6z m1363 -63 c-1 -11 -9
-22 -19 -24 -17 -5 -17 -4 0 19 21 29 21 29 19 5z m-2430 -7 c-3 -3 -12 -4
-19 -1 -8 3 -5 6 6 6 11 1 17 -2 13 -5z m977 -70 c13 -8 16 -17 11 -33 -3 -11
-11 -21 -17 -21 -5 0 -8 7 -5 15 4 8 1 17 -5 21 -7 4 -8 3 -4 -4 4 -7 2 -12
-3 -12 -6 0 -11 4 -11 9 0 5 -3 16 -6 24 -6 17 10 17 40 1z m116 9 c0 -5 28
-21 63 -38 76 -36 72 -34 65 -41 -3 -3 -23 3 -45 14 -60 31 -83 36 -83 19 0
-9 5 -17 11 -19 6 -2 10 -13 7 -23 -2 -15 -8 -9 -24 25 -21 43 -22 70 -3 70 5
0 9 -3 9 -7z m839 -3 c26 -13 47 -68 32 -83 -8 -8 -11 -4 -11 16 0 31 0 30
-34 17 -16 -6 -26 -6 -26 0 0 5 -10 15 -22 21 -22 12 -22 12 -6 -13 17 -25 17
-26 -7 -14 -31 14 -32 30 -3 50 26 18 51 20 77 6z m411 -29 c-12 -24 -30 -36
-30 -21 0 13 22 39 33 40 4 0 3 -9 -3 -19z m-2560 -58 c0 -38 -4 -74 -9 -81
-10 -16 -89 -21 -151 -10 -26 5 -56 4 -72 -1 -28 -10 -28 -10 -28 34 l0 43
103 41 c56 22 114 41 130 41 27 0 27 0 27 -67z m720 2 c91 -8 210 -17 265 -21
103 -7 155 -23 155 -49 0 -8 7 -15 16 -15 18 0 15 -31 -4 -38 -8 -2 -12 2 -10
9 1 8 -1 14 -6 14 -5 0 -12 10 -17 23 -16 43 -26 21 -35 -75 l-9 -97 -60 2
c-71 3 -379 27 -620 47 -93 8 -215 17 -270 21 -161 11 -161 11 -48 59 62 26
103 37 141 37 58 1 76 13 40 27 -13 6 -18 10 -11 10 6 1 20 4 30 7 13 4 15 3
4 -4 -25 -18 9 -24 44 -8 114 54 172 75 200 71 17 -3 104 -12 195 -20z m395
-14 c-6 -5 -25 10 -25 20 0 5 6 4 14 -3 8 -7 12 -15 11 -17z m62 -3 c-3 -7 -5
-2 -5 12 0 14 2 19 5 13 2 -7 2 -19 0 -25z m1563 22 c0 -5 -4 -10 -10 -10 -5
0 -10 5 -10 10 0 6 5 10 10 10 6 0 10 -4 10 -10z m-2717 -25 c4 -8 2 -17 -3
-20 -6 -4 -10 3 -10 14 0 25 6 27 13 6z m2115 3 c-3 -7 -15 -13 -28 -13 -13 0
-25 6 -27 13 -3 8 6 12 27 12 21 0 30 -4 28 -12z m-2064 -14 c8 -3 12 -12 9
-20 -6 -16 -53 -19 -53 -3 0 5 4 7 10 4 6 -3 7 1 4 9 -6 17 4 20 30 10z m123
-10 c-3 -3 -12 -4 -19 -1 -8 3 -5 6 6 6 11 1 17 -2 13 -5z m1093 -30 c32 -21
47 -25 77 -21 20 4 39 11 43 17 5 7 11 6 20 -5 7 -8 9 -15 4 -16 -45 -4 -57
-7 -64 -18 -10 -18 -110 -6 -130 16 -8 8 -9 13 -2 9 7 -5 12 -1 12 9 0 9 -4
13 -10 10 -5 -3 -10 -1 -10 4 0 6 -6 11 -14 11 -8 0 -18 5 -22 12 -12 20 52 1
96 -28z m-1135 16 c3 -5 -1 -10 -9 -10 -9 0 -16 5 -16 10 0 6 4 10 9 10 6 0
13 -4 16 -10z m2475 0 c18 -12 2 -12 -25 0 -13 6 -15 9 -5 9 8 0 22 -4 30 -9z
m-2390 -10 c8 -5 11 -10 5 -10 -5 0 -17 5 -25 10 -8 5 -10 10 -5 10 6 0 17 -5
25 -10z m2780 -85 c-9 -11 -15 -9 -35 10 -30 27 -32 39 -5 30 15 -5 20 -2 20
12 1 13 5 11 16 -10 11 -21 13 -32 4 -42z m-1580 -4 c0 -5 -9 -7 -20 -4 -11 3
-20 7 -20 9 0 2 9 4 20 4 11 0 20 -4 20 -9z m-185 -34 c40 -9 75 -11 105 -5
25 4 50 6 55 4 17 -6 -66 -25 -132 -31 -50 -4 -63 -2 -63 9 0 8 -9 18 -20 21
-11 3 -20 14 -20 23 0 12 3 13 8 5 4 -7 35 -18 67 -26z m-115 -2 c0 -9 -9 -15
-22 -14 -17 1 -19 2 -5 6 9 2 17 9 17 14 0 5 2 9 5 9 3 0 5 -7 5 -15z m257
-51 c-3 -3 -12 -4 -19 -1 -8 3 -5 6 6 6 11 1 17 -2 13 -5z m-99 -57 c17 0 32
-5 32 -10 0 -5 6 -7 14 -4 16 6 26 -10 19 -30 -4 -10 -10 -10 -26 -1 -20 10
-21 10 -8 -6 14 -17 12 -17 -35 -9 -27 4 -70 8 -96 8 -27 0 -48 3 -48 7 0 5
-10 9 -22 9 -23 2 -23 2 0 6 18 4 23 9 19 25 -6 20 -3 20 56 13 34 -5 77 -8
95 -8z m-211 -39 c-3 -7 -5 -2 -5 12 0 14 2 19 5 13 2 -7 2 -19 0 -25z m123
-27 c0 -5 -13 -14 -30 -20 -34 -11 -40 -22 -10 -16 11 2 22 0 25 -5 3 -5 38
-7 77 -4 l72 5 -18 -20 c-15 -17 -31 -21 -77 -21 -72 0 -109 15 -109 46 0 15
9 25 28 32 35 13 42 14 42 3z m-49 -100 c-8 -5 -20 -7 -28 -4 -21 8 -15 13 15
13 20 0 23 -3 13 -9z m1805 -19 c22 -11 57 -38 77 -59 38 -39 97 -146 97 -176
0 -9 5 -17 10 -17 6 0 10 -6 10 -13 0 -8 9 -24 20 -37 11 -13 20 -31 20 -41 0
-9 3 -26 7 -36 4 -13 -2 -11 -24 10 -36 33 -74 37 -70 6 2 -11 10 -25 17 -29
8 -5 11 -12 7 -17 -4 -4 -16 -2 -25 4 -16 10 -18 19 -21 83 -1 17 -4 21 -9 12
-7 -9 -13 -8 -27 8 -19 21 -55 27 -55 10 0 -6 -10 -8 -24 -4 -13 3 -27 1 -30
-5 -4 -6 -15 -11 -25 -11 -12 0 -18 -7 -17 -17 1 -12 -5 -17 -17 -15 -12 2
-21 -4 -24 -17 -6 -24 -19 -27 -26 -8 -3 6 -3 -1 -1 -18 l5 -30 -53 0 c-45 0
-53 -3 -50 -17 2 -10 -2 -18 -7 -18 -6 0 -8 -7 -5 -15 4 -8 1 -15 -5 -15 -6 0
-10 -3 -10 -7 4 -25 -3 -43 -17 -43 -12 0 -15 7 -12 25 3 13 2 22 -3 20 -4 -3
-10 -28 -14 -57 -10 -69 -56 -160 -74 -143 -2 2 9 30 24 60 15 31 24 59 21 62
-3 4 -6 -1 -6 -9 0 -9 -7 -21 -15 -28 -22 -18 -19 -3 16 97 29 83 64 156 91
195 7 9 9 20 5 24 -9 9 -42 -20 -78 -70 -16 -21 -29 -36 -29 -32 0 5 8 20 19
34 20 29 53 103 48 108 -8 8 -49 -30 -64 -59 -9 -17 -29 -44 -44 -58 -16 -15
-29 -36 -29 -47 0 -12 -4 -24 -10 -27 -19 -12 -10 28 15 72 29 49 19 57 -20
16 -32 -35 -32 -24 0 23 14 20 25 42 25 48 0 8 -2 8 -8 0 -4 -6 -18 -17 -30
-23 -22 -12 -23 -11 -17 11 4 12 13 33 21 45 22 34 17 39 -13 12 -16 -13 -22
-17 -15 -9 20 23 14 35 -8 15 -24 -22 -36 -14 -21 14 12 21 30 24 44 6 4 -6
10 -5 16 4 7 11 9 11 13 0 3 -10 12 -6 30 13 14 15 28 25 31 21 4 -3 7 -1 7 5
0 18 -15 14 -35 -8 -20 -22 -41 -27 -29 -7 6 9 4 9 -7 1 -15 -12 -49 -15 -49
-4 0 3 18 23 39 45 22 21 40 41 39 44 -2 21 6 33 43 62 63 50 101 60 214 56
77 -3 109 -9 141 -25z m-1668 -39 c-9 -10 -23 -43 -33 -73 -10 -30 -21 -59
-25 -63 -4 -5 -22 15 -41 44 l-33 52 23 16 c30 20 80 39 105 40 17 1 18 -1 4
-16z m1112 0 c0 -1 -12 -9 -27 -17 -30 -14 -91 -3 -65 13 10 6 92 10 92 4z
m-2617 -180 c-7 -2 -19 -2 -25 0 -7 3 -2 5 12 5 14 0 19 -2 13 -5z m1362 -33
c30 -17 64 -64 54 -74 -3 -4 -32 3 -64 14 -68 23 -65 23 -65 10 0 -5 6 -10 13
-10 29 0 117 -52 117 -70 0 -17 -3 -17 -62 0 -35 9 -90 20 -123 23 l-60 6 70
-18 c39 -9 94 -25 122 -35 46 -15 52 -21 51 -42 -2 -18 -7 -24 -18 -20 -8 3
-40 14 -70 25 -30 10 -75 22 -100 25 -34 5 -17 -4 69 -37 100 -37 117 -48 133
-76 23 -41 17 -49 -24 -33 -50 19 -44 6 8 -17 85 -38 41 -31 -91 15 -71 24
-136 44 -143 44 -28 0 0 -18 55 -35 92 -28 183 -66 178 -74 -2 -4 6 -7 18 -7
29 1 34 -30 7 -44 -16 -9 -24 -8 -38 6 -18 19 -134 74 -154 74 -9 0 -9 -3 0
-12 22 -22 12 -32 -10 -10 -13 11 -36 25 -51 31 -43 16 -179 13 -234 -5 -44
-15 -47 -15 -60 2 -7 11 -17 25 -23 31 -8 9 -8 19 0 35 7 15 0 10 -19 -12 -34
-39 -38 -36 -17 15 l15 34 -37 4 c-36 4 -36 4 7 5 33 2 48 8 63 27 32 41 130
111 215 154 45 23 86 41 92 41 22 0 61 24 50 30 -24 15 98 -4 126 -20z m2798
-68 c6 -8 -6 -4 -26 8 -20 12 -40 27 -44 32 -8 14 55 -23 70 -40z m-876 -18
c-3 -3 -12 -4 -19 -1 -8 3 -5 6 6 6 11 1 17 -2 13 -5z m89 -51 c-3 -4 -6 -1
-6 5 0 7 -8 12 -17 12 -15 0 -16 2 -3 10 10 6 17 4 23 -6 5 -9 6 -18 3 -21z
m26 -48 c-2 -14 -6 -25 -8 -25 -2 0 -4 11 -4 25 0 14 4 25 9 25 4 0 6 -11 3
-25z m915 19 c-3 -3 -12 -4 -19 -1 -8 3 -5 6 6 6 11 1 17 -2 13 -5z m-938 -49
c0 -5 -4 -3 -9 5 -5 8 -9 22 -9 30 0 16 17 -16 18 -35z m-3096 18 c-7 -2 -19
-2 -25 0 -7 3 -2 5 12 5 14 0 19 -2 13 -5z m84 -9 c-3 -3 -12 -4 -19 -1 -8 3
-5 6 6 6 11 1 17 -2 13 -5z m46 -1 c-7 -2 -19 -2 -25 0 -7 3 -2 5 12 5 14 0
19 -2 13 -5z m160 -10 c-18 -2 -48 -2 -65 0 -18 2 -4 4 32 4 36 0 50 -2 33 -4z
m3840 -7 c4 -10 0 -12 -14 -9 -22 6 -26 23 -5 23 8 0 16 -6 19 -14z m-3720 -3
c-13 -2 -33 -2 -45 0 -13 2 -3 4 22 4 25 0 35 -2 23 -4z m2317 3 c0 -11 -19
-15 -25 -6 -3 5 1 10 9 10 9 0 16 -2 16 -4z m1407 -48 c-3 -8 -6 -5 -6 6 -1
11 2 17 5 13 3 -3 4 -12 1 -19z m-1490 -26 c7 -4 9 -13 4 -21 -11 -18 -52 -5
-44 15 6 15 21 18 40 6z m190 -42 c-1 -11 -5 -20 -9 -20 -4 0 -8 9 -8 20 0 11
4 20 9 20 6 0 9 -9 8 -20z m-1945 -39 c14 -5 47 -26 72 -45 29 -22 62 -37 91
-42 44 -6 75 -25 75 -45 0 -6 -3 -9 -7 -7 -74 35 -120 48 -167 47 l-41 -1 50
-14 c28 -8 73 -25 102 -39 37 -17 53 -21 57 -12 2 7 5 4 5 -5 1 -10 6 -18 11
-18 6 0 10 -5 10 -11 0 -7 21 -57 46 -113 59 -127 78 -182 114 -328 26 -107
49 -172 50 -140 0 6 5 12 11 12 5 0 8 -4 4 -9 -3 -5 3 -12 14 -16 27 -8 101
-2 101 9 0 16 153 -1 166 -18 8 -12 29 -16 75 -16 35 0 129 -7 209 -14 80 -8
236 -20 348 -27 130 -8 201 -16 199 -23 -2 -6 -21 -9 -43 -8 -74 5 -310 21
-691 48 -211 15 -385 25 -388 23 -4 -5 8 -52 43 -167 10 -33 27 -63 44 -78 38
-31 98 -149 98 -191 0 -18 6 -51 12 -73 11 -34 17 -40 40 -40 16 0 41 -12 60
-29 37 -32 65 -38 225 -46 74 -3 103 -1 106 8 2 8 8 7 19 -4 15 -15 80 -22
298 -34 25 -2 50 -4 55 -5 6 -1 22 -2 36 -1 24 1 27 6 32 53 5 40 13 57 34 75
26 20 26 22 7 23 -17 0 -21 7 -22 39 -2 36 1 40 29 46 18 4 75 5 128 2 89 -5
91 -5 31 4 -36 6 -97 8 -136 5 -80 -5 -94 5 -94 69 0 37 76 198 151 321 40 66
47 95 13 55 -13 -15 -20 -17 -26 -8 -7 10 -13 -29 -9 -55 1 -10 -13 -10 -22
-1 -4 3 -2 12 5 20 9 11 8 13 -2 11 -25 -6 -33 50 -17 117 9 35 13 73 10 85
-4 13 0 26 8 31 10 7 11 11 3 17 -17 10 -22 58 -6 54 6 -1 12 3 12 9 0 6 -7 9
-15 5 -9 -3 -15 0 -15 9 0 8 9 15 20 15 11 0 20 5 20 11 0 6 -9 8 -20 4 -23
-7 -25 1 -5 35 19 33 19 46 0 30 -14 -11 -15 -6 -9 46 4 32 12 62 18 66 8 5 7
8 -1 8 -9 0 -13 17 -13 54 0 70 10 117 23 109 5 -3 7 -1 4 5 -8 12 1 42 12 42
4 0 27 18 50 40 42 40 61 49 61 30 0 -5 -6 -10 -12 -10 -15 0 -37 -26 -83 -97
-35 -54 -34 -67 1 -35 30 26 47 27 39 1 -5 -16 -4 -19 5 -14 8 5 11 3 8 -6 -3
-8 -10 -13 -16 -12 -5 1 -13 -4 -16 -12 -3 -9 1 -15 9 -15 24 0 17 -19 -10
-32 -14 -6 -25 -15 -25 -20 0 -14 30 -9 36 6 9 25 83 68 105 61 15 -5 19 -2
19 14 0 27 17 27 25 0 4 -13 2 -25 -5 -29 -15 -9 -7 -52 14 -73 12 -11 11 -15
-4 -25 -12 -7 -16 -19 -13 -36 3 -16 1 -26 -6 -26 -7 0 -5 -10 6 -27 17 -28
17 -28 -3 -10 -11 9 -33 17 -49 17 l-29 0 32 28 c18 16 32 34 32 40 0 20 -26
13 -54 -13 -15 -14 -39 -25 -53 -25 -26 0 -26 -1 -7 -14 10 -8 16 -18 11 -22
-4 -4 -7 -2 -7 4 0 7 -7 12 -16 12 -9 0 -14 -7 -12 -17 2 -10 -3 -23 -12 -30
-13 -11 -13 -12 1 -13 8 0 20 5 27 12 6 6 14 9 18 5 10 -9 -6 -27 -33 -38 -17
-6 -23 -15 -21 -31 2 -13 -2 -22 -8 -21 -7 1 -11 -9 -10 -22 1 -27 16 -35 16
-10 0 8 5 15 10 15 6 0 15 11 20 24 5 13 22 32 39 42 16 9 35 28 42 41 15 28
25 29 38 4 8 -15 7 -18 -5 -17 -9 0 -23 -10 -32 -23 -16 -24 -16 -24 6 -19 19
5 21 4 11 -8 -6 -8 -18 -14 -25 -14 -8 0 -14 -7 -14 -15 0 -8 -5 -14 -11 -13
-6 2 -14 -3 -17 -11 -3 -8 0 -11 7 -7 6 4 11 3 11 -1 0 -5 -9 -14 -19 -20 -11
-7 -26 -24 -33 -37 -7 -14 -25 -43 -40 -64 -31 -43 -48 -102 -29 -102 7 0 33
23 59 50 51 55 62 60 62 30 0 -11 -4 -20 -10 -20 -5 0 -10 -5 -10 -11 0 -6 6
-9 13 -7 16 6 46 67 47 96 0 12 5 22 10 22 6 0 10 5 10 11 0 15 63 143 72 147
4 2 5 9 2 17 -3 7 4 23 16 35 11 11 18 26 14 32 -5 8 -1 9 11 5 11 -5 23 -1
32 10 13 17 13 17 5 -2 -5 -11 -9 -34 -7 -52 1 -18 -2 -30 -7 -27 -4 3 -8 0
-8 -6 0 -30 -76 -179 -125 -248 -19 -26 -59 -81 -90 -122 -90 -124 -217 -370
-190 -370 13 0 55 25 55 32 0 5 25 33 55 63 50 50 58 55 100 55 25 0 45 -5 45
-11 0 -5 5 -7 10 -4 12 8 13 -5 1 -24 -5 -7 -13 -11 -18 -8 -6 4 -19 0 -29 -8
-10 -8 -27 -15 -38 -15 -15 0 -16 -3 -6 -15 17 -20 21 -19 64 10 20 14 50 26
66 27 16 1 32 8 34 15 6 15 36 18 36 3 0 -5 -4 -10 -9 -10 -5 0 -11 -11 -15
-24 -6 -25 -51 -46 -143 -67 -29 -7 -53 -16 -53 -19 0 -17 113 -41 182 -40 42
2 95 -4 126 -13 30 -9 61 -13 69 -10 11 4 14 2 11 -8 -7 -20 -104 -34 -135
-20 -13 6 -47 10 -76 10 l-52 -1 53 -9 c30 -5 63 -16 75 -24 12 -8 31 -15 42
-15 22 0 52 -16 45 -24 -3 -2 -23 2 -45 10 -42 16 -265 25 -265 12 0 -9 38
-13 86 -10 25 2 33 -2 37 -19 5 -20 3 -21 -34 -15 -53 8 -53 -16 0 -44 33 -16
40 -17 45 -5 18 48 68 -26 122 -181 24 -70 44 -136 44 -146 0 -10 7 -18 17
-18 13 0 14 -3 5 -12 -18 -18 -15 -25 18 -31 36 -8 38 -24 6 -54 -13 -13 -29
-43 -35 -67 -16 -64 -57 -93 -150 -106 -79 -11 -171 -1 -249 27 -35 12 -47 23
-62 57 -14 32 -19 36 -19 18 -1 -35 26 -92 56 -118 15 -13 25 -25 23 -27 -3
-2 -93 2 -200 9 -562 37 -986 64 -1002 64 -38 0 -15 16 60 42 42 15 88 30 102
32 14 3 47 12 74 20 27 9 60 13 74 9 15 -3 23 -2 19 4 -3 5 10 17 30 27 33 16
37 16 45 1 6 -10 17 -14 28 -10 14 4 19 -1 24 -28 6 -32 8 -33 51 -33 25 1 45
4 45 8 0 5 -15 8 -32 8 -42 0 -60 11 -48 30 8 12 10 12 16 -3 8 -22 28 -22 53
0 18 15 19 19 5 45 -9 17 -10 28 -4 28 6 0 15 -11 22 -24 15 -34 27 -37 66
-16 28 15 30 18 13 23 -11 3 -22 0 -24 -7 -2 -6 -8 -8 -13 -3 -11 10 37 42 58
39 11 -2 16 2 13 10 -10 28 11 40 59 33 48 -8 61 -23 26 -32 -11 -3 -20 -9
-20 -14 0 -5 -3 -8 -7 -8 -29 5 -33 -4 -8 -17 l30 -14 -32 5 c-18 2 -33 0 -33
-5 0 -6 7 -10 16 -10 9 0 14 -6 11 -12 -2 -7 3 -25 11 -40 26 -44 112 -43 112
2 0 11 7 20 15 20 14 0 16 -6 19 -82 1 -15 7 -33 14 -40 11 -11 12 -9 6 7 -6
16 -5 18 7 8 7 -7 24 -13 37 -13 19 0 22 4 17 20 -5 15 -2 20 10 20 11 0 15
-5 11 -15 -4 -12 3 -15 29 -15 19 0 35 -4 35 -10 0 -5 5 -10 10 -10 6 0 10 9
10 21 0 12 -4 17 -11 13 -6 -3 -4 8 5 24 9 17 16 43 16 57 0 15 4 24 10 20 6
-4 10 8 10 29 0 25 -6 39 -22 50 -12 9 -17 16 -11 16 7 0 15 -5 18 -10 5 -8
11 -7 20 0 8 7 19 9 25 5 6 -3 10 3 10 14 0 12 -6 21 -12 21 -10 0 -10 2 0 8
9 6 11 27 7 78 -11 138 -17 163 -40 144 -9 -8 -17 -7 -26 2 -8 7 -34 14 -59
15 -25 1 -72 4 -105 7 -33 3 -50 3 -37 0 30 -7 19 -23 -13 -17 -13 3 -23 9
-20 13 2 4 -21 6 -53 5 -35 -2 -60 1 -64 8 -5 8 -12 6 -22 -8 -14 -18 -15 -18
-16 -2 0 12 -9 17 -32 18 -18 0 -59 3 -90 5 -32 3 -58 1 -58 -4 0 -15 -84 -8
-92 8 -8 16 0 -162 8 -192 3 -10 12 -18 20 -18 26 0 -22 -58 -66 -80 -47 -24
-57 -25 -57 -5 0 8 6 15 14 15 13 0 73 75 73 93 0 5 -9 7 -20 4 -24 -6 -25 8
-5 43 8 14 14 33 15 43 0 17 -2 17 -26 -2 -29 -23 -68 -27 -108 -11 -29 11
-31 6 -11 -30 23 -39 18 -50 -19 -50 -19 0 -38 -4 -41 -10 -3 -5 -15 -44 -26
-87 -26 -101 -24 -99 -114 -107 -31 -3 -44 -10 -57 -32 -9 -15 -29 -34 -43
-41 -29 -16 -33 -7 -7 14 16 14 16 14 0 9 -10 -3 -18 -1 -18 5 0 6 -4 8 -10 4
-5 -3 -7 -12 -4 -19 8 -20 -19 -26 -169 -37 -133 -9 -142 -9 -245 17 -59 14
-122 32 -141 40 -45 19 -53 8 -17 -23 l30 -25 -60 6 c-32 3 -214 15 -404 26
-306 18 -584 35 -1125 70 -88 6 -246 15 -352 20 -106 5 -200 13 -209 18 -11 6
-5 9 23 10 37 2 576 -26 960 -49 105 -6 203 -9 217 -5 13 3 28 2 31 -4 7 -12
195 -14 195 -2 0 9 46 30 83 36 23 4 27 1 27 -17 0 -12 -4 -17 -8 -12 -13 18
-48 14 -61 -7 -13 -21 -12 -21 55 -15 44 4 62 3 49 -3 -16 -7 -11 -9 22 -9 23
-1 45 4 49 11 5 8 0 9 -14 6 -12 -4 -25 -1 -29 5 -3 7 -3 9 2 5 4 -4 14 -3 21
3 8 6 21 8 30 5 14 -5 15 -4 4 9 -7 8 -19 15 -26 15 -8 0 -14 5 -14 10 0 17
25 11 49 -11 22 -20 27 -21 75 -10 34 8 52 8 54 1 7 -21 24 -9 20 15 -3 14 1
30 8 36 11 9 14 7 14 -10 0 -11 4 -21 10 -21 5 0 7 -7 3 -16 -7 -20 18 -38 30
-21 6 8 7 6 3 -6 -4 -12 1 -21 17 -27 18 -9 17 -9 -10 -4 -17 3 -34 1 -38 -5
-11 -18 143 -14 161 4 22 21 65 30 74 15 18 -29 30 45 12 76 -14 27 -6 35 27
28 17 -4 21 -2 14 3 -10 7 -10 13 1 29 8 10 19 20 25 20 6 1 16 2 21 3 6 0 10
6 10 12 0 6 -7 9 -15 5 -16 -6 -19 27 -6 74 l7 25 7 -24 c3 -14 1 -31 -5 -39
-10 -11 -7 -13 17 -11 17 2 36 -1 44 -5 10 -6 19 -3 30 11 9 11 22 18 29 15 6
-2 12 1 12 7 0 6 -4 11 -10 11 -5 0 -10 5 -10 12 0 7 6 6 18 -4 9 -9 24 -18
32 -20 21 -7 79 24 120 66 19 19 38 36 42 36 11 0 56 48 69 72 12 22 12 22
-15 5 -21 -14 -26 -15 -26 -3 0 8 9 18 20 21 24 8 50 32 50 47 0 7 -10 2 -23
-10 -34 -33 -47 -28 -47 18 0 41 -7 49 -28 28 -9 -9 -12 -9 -12 0 0 7 36 47
80 90 44 43 80 83 80 88 0 5 -35 8 -81 6 -73 -3 -83 -1 -114 22 -18 14 -38 26
-43 26 -11 0 -52 78 -52 97 0 6 -7 13 -15 17 -19 7 -19 40 0 56 19 16 114 3
122 -16 3 -8 13 -14 22 -13 10 0 11 2 3 6 -6 2 -9 10 -6 15 4 7 2 8 -4 4 -7
-4 -12 -2 -12 3 0 13 6 14 51 1 41 -11 142 -1 142 15 -1 5 -50 34 -109 65
-182 93 -293 165 -276 182 10 10 33 16 66 17 18 1 18 2 -2 20 -12 10 -22 28
-22 39 0 11 -4 23 -9 26 -13 8 -20 55 -8 59 18 6 -3 47 -25 47 -14 0 -18 5
-14 16 3 8 -1 22 -8 30 -10 9 -13 26 -9 50 4 27 2 34 -8 32 -10 -2 -13 5 -11
25 2 18 -3 29 -13 33 -14 6 -13 8 2 20 17 12 16 13 -7 14 -23 1 -22 2 10 17
25 12 66 16 145 17 92 1 120 -3 168 -21 70 -28 84 -29 37 -3 -88 48 -217 64
-324 40 -52 -11 -82 2 -66 31 5 8 6 26 3 42 -4 21 -11 27 -32 28 -18 1 -20 3
-8 6 14 4 16 8 6 19 -9 11 -8 14 2 14 10 1 8 4 -3 11 -10 5 -18 16 -18 24 0 7
-8 15 -17 18 -14 3 -9 8 17 21 27 13 54 16 120 12 47 -2 97 -9 112 -15z m1010
-64 c29 -24 79 -79 111 -122 93 -128 91 -125 79 -137 -16 -16 -54 12 -83 59
-13 21 -27 43 -31 48 -42 54 -40 44 12 -65 33 -69 61 -136 63 -150 2 -14 2
-19 0 -13 -3 7 -16 16 -29 19 -14 4 -22 9 -19 12 3 3 -6 17 -19 31 -13 14 -26
35 -28 46 -2 11 -16 24 -31 30 -24 8 -30 6 -38 -8 -11 -19 -44 -23 -54 -7 -4
6 -13 9 -20 8 -7 -2 -29 15 -49 37 -34 38 -36 39 -32 13 4 -22 36 -79 56 -98
17 -16 59 -135 50 -144 -6 -6 -13 0 -20 18 -5 15 -17 34 -25 42 -8 8 -18 30
-24 49 -5 18 -21 46 -35 62 -14 15 -26 33 -26 40 0 7 -4 13 -9 13 -6 0 -6 12
0 30 6 17 15 30 19 30 5 0 2 12 -5 28 -23 46 -21 56 15 101 36 45 73 70 102
71 10 0 41 -19 70 -43z m733 23 c3 -5 1 -10 -4 -10 -6 0 -11 5 -11 10 0 6 2
10 4 10 3 0 8 -4 11 -10z m45 -6 c0 -8 -4 -12 -10 -9 -5 3 -10 10 -10 16 0 5
5 9 10 9 6 0 10 -7 10 -16z m-3374 -9 c9 -8 14 -15 12 -16 -23 -5 -58 -7 -58
-3 0 5 23 33 28 34 2 0 10 -7 18 -15z m4813 -79 c-9 -8 -10 -3 -5 23 3 18 7
41 8 50 1 9 3 -1 5 -23 3 -22 -1 -43 -8 -50z m-2919 64 c0 -5 -7 -7 -15 -4 -8
4 -15 8 -15 10 0 2 7 4 15 4 8 0 15 -4 15 -10z m-1956 -44 c-7 -18 -20 -21
-29 -6 -3 6 1 10 9 10 9 0 16 5 16 12 0 6 2 9 5 6 3 -3 3 -13 -1 -22z m4706
-16 c0 -16 -4 -30 -10 -30 -5 0 -10 9 -10 20 0 14 -7 20 -22 21 -22 1 -22 1 2
9 39 12 40 12 40 -20z m-1253 -22 c-3 -7 -5 -2 -5 12 0 14 2 19 5 13 2 -7 2
-19 0 -25z m-3506 -11 c-4 -4 -15 -5 -25 -1 -12 5 -14 10 -5 20 8 10 14 11 24
1 7 -7 10 -16 6 -20z m3474 13 c3 -5 1 -10 -4 -10 -6 0 -11 5 -11 10 0 6 2 10
4 10 3 0 8 -4 11 -10z m-3520 -20 c3 -5 1 -10 -4 -10 -6 0 -11 5 -11 10 0 6 2
10 4 10 3 0 8 -4 11 -10z m4965 -107 c-10 -15 -11 -14 -6 7 3 14 7 45 8 70 l2
45 3 -52 c2 -29 -1 -61 -7 -70z m-1457 100 c-7 -2 -19 -2 -25 0 -7 3 -2 5 12
5 14 0 19 -2 13 -5z m-3566 -57 c-3 -8 -1 -17 6 -20 7 -2 2 -5 -10 -5 -12 -1
-30 -4 -40 -8 -16 -6 -16 -5 -4 10 7 9 20 17 27 17 8 0 14 5 14 10 0 6 3 10 6
10 3 0 4 -6 1 -14z m4990 -28 c-3 -8 -6 -5 -6 6 -1 11 2 17 5 13 3 -3 4 -12 1
-19z m-5090 -49 c-12 -7 -16 -17 -12 -30 5 -13 2 -19 -10 -19 -10 0 -13 5 -9
13 4 6 -2 3 -14 -7 -17 -14 -22 -16 -22 -5 0 15 57 59 75 59 5 0 2 -5 -8 -11z
m2730 -67 c27 -48 39 -102 23 -102 -7 0 -14 9 -17 20 -3 11 -9 20 -14 20 -12
0 -25 29 -33 72 -9 48 12 43 41 -10z m196 -14 c26 -71 32 -101 17 -96 -8 2
-14 14 -15 26 -1 12 -12 33 -24 46 -16 17 -21 31 -16 45 10 32 21 25 38 -21z
m2198 -23 c11 -4 55 -41 97 -82 42 -42 110 -103 150 -137 132 -109 135 -113
124 -120 -6 -3 -13 -2 -17 3 -3 6 -12 8 -20 5 -18 -7 -57 14 -50 27 4 5 11 6
17 3 16 -10 -7 29 -29 47 -10 9 -29 22 -41 29 l-24 12 23 -31 c12 -17 26 -28
30 -25 11 6 21 -14 14 -27 -5 -6 -12 -3 -21 9 -8 11 -31 31 -51 43 -21 13 -44
29 -51 36 -14 13 -8 33 9 33 6 0 8 -4 5 -9 -3 -5 1 -12 10 -15 25 -10 27 -1 4
19 -16 14 -22 15 -35 5 -12 -10 -18 -10 -30 0 -8 7 -12 16 -9 21 3 5 1 8 -4 7
-5 -2 -40 24 -77 57 -37 33 -80 70 -94 82 -25 23 -26 23 -4 23 13 0 28 10 35
23 l13 22 3 -27 c2 -16 11 -30 23 -33z m-1174 -137 c-3 -8 -6 -5 -6 6 -1 11 2
17 5 13 3 -3 4 -12 1 -19z m853 -78 c0 -5 -4 -10 -9 -10 -6 0 -13 5 -16 10 -3
6 1 10 9 10 9 0 16 -4 16 -10z m94 -9 c3 -4 -6 -6 -19 -3 -14 2 -25 6 -25 8 0
8 39 4 44 -5z m-4524 -26 c724 -41 975 -55 1078 -60 105 -5 158 -15 136 -27
-8 -4 -365 18 -1059 66 -126 9 -283 19 -347 23 -65 3 -118 10 -118 15 0 4 10
6 23 3 12 -2 141 -11 287 -20z m3470 -25 c0 -5 -8 -10 -17 -10 -15 0 -16 2 -3
10 19 12 20 12 20 0z m-670 -60 c0 -5 -5 -10 -11 -10 -5 0 -7 5 -4 10 3 6 8
10 11 10 2 0 4 -4 4 -10z m680 -3 c0 -7 -9 -18 -20 -25 -11 -7 -20 -19 -20
-28 0 -9 -9 -27 -20 -41 -25 -32 -26 -47 -1 -33 30 15 40 12 34 -11 -6 -21
-32 -23 -75 -4 -11 4 -18 3 -18 -4 0 -6 5 -11 11 -11 6 0 17 -7 25 -15 9 -8
24 -15 35 -15 16 0 19 -5 14 -20 -4 -11 -2 -20 4 -20 6 0 11 -7 11 -15 0 -8 5
-15 11 -15 5 0 7 -5 3 -11 -4 -7 -9 -7 -13 -1 -3 5 -24 9 -46 8 -27 0 -39 3
-38 12 2 6 -4 12 -12 12 -8 0 -15 8 -15 17 0 15 -2 14 -14 -3 -11 -14 -14 -15
-14 -4 2 35 -3 51 -14 47 -7 -2 -12 -9 -11 -15 3 -13 -29 -4 -38 11 -13 19 42
66 79 69 34 3 59 28 28 28 -30 0 -16 18 19 24 39 8 57 26 26 26 -12 0 -21 2
-21 4 0 2 -3 12 -6 21 -6 15 -4 15 14 4 17 -11 24 -10 44 4 28 20 38 21 38 4z
m-760 -17 c0 -5 -2 -10 -4 -10 -3 0 -8 5 -11 10 -3 6 -1 10 4 10 6 0 11 -4 11
-10z m-353 -26 c-3 -3 -12 -4 -19 -1 -8 3 -5 6 6 6 11 1 17 -2 13 -5z m353 -4
c-8 -5 -22 -10 -30 -10 -13 0 -13 1 0 10 8 5 22 10 30 10 13 0 13 -1 0 -10z
m270 -11 c0 -5 -6 -9 -14 -9 -23 0 -46 11 -41 20 6 10 55 0 55 -11z m-323 -5
c-3 -3 -12 -4 -19 -1 -8 3 -5 6 6 6 11 1 17 -2 13 -5z m406 -31 c-7 -2 -21 -2
-30 0 -10 3 -4 5 12 5 17 0 24 -2 18 -5z m-3393 -26 c0 -2 -10 -12 -22 -23
l-23 -19 19 23 c18 21 26 27 26 19z m4300 -62 c41 -3 185 -15 320 -26 135 -11
290 -22 345 -25 55 -3 126 -9 157 -13 32 -4 61 -4 66 1 6 6 12 2 16 -7 5 -15
1 -17 -36 -11 -24 3 -173 15 -333 26 -159 11 -344 24 -410 29 -66 6 -162 13
-212 17 -56 4 -90 10 -87 16 3 5 27 7 53 4 25 -3 80 -8 121 -11z m-4300 -65
l-11 -25 6 25 c2 14 5 34 6 45 2 19 2 19 6 0 2 -12 -1 -32 -7 -45z m3240 50
c-12 -8 -11 -10 8 -10 25 0 27 -8 10 -44 -9 -20 -14 -23 -25 -15 -10 9 -13 7
-13 -8 0 -12 -7 -19 -20 -19 -13 0 -20 7 -20 21 0 30 37 85 57 85 15 0 16 -2
3 -10z m1931 -23 c12 -22 12 -22 -10 -3 -11 11 -21 23 -21 28 0 14 19 -1 31
-25z m-5299 -21 c33 21 -15 -33 -165 -185 -100 -101 -174 -168 -182 -165 -7 3
-16 1 -20 -5 -3 -7 0 -8 9 -5 29 11 16 -6 -63 -86 -51 -53 -86 -80 -100 -80
-14 0 -21 5 -18 13 2 6 11 11 20 11 9 -1 15 2 12 6 -3 4 3 14 12 21 14 12 16
12 8 -1 -8 -13 -6 -13 8 -1 9 7 14 18 11 23 -10 16 47 69 68 62 10 -3 18 0 18
6 0 6 -5 8 -12 4 -16 -10 24 46 50 69 11 10 24 17 30 15 13 -4 274 250 263
256 -13 8 -86 -54 -83 -70 2 -8 -4 -14 -13 -14 -23 0 -5 30 56 93 27 28 49 58
49 66 1 10 7 4 16 -12 8 -15 20 -25 26 -21z m3983 -17 c-11 -16 4 -59 20 -59
8 0 15 -6 15 -14 0 -8 3 -23 7 -33 4 -13 -3 -9 -26 12 -17 16 -29 35 -27 42 3
7 1 13 -4 13 -14 0 -12 24 2 38 15 15 21 16 13 1z m-864 -119 c-7 -76 -8 -79
-10 -29 -1 53 8 124 15 117 2 -2 -1 -42 -5 -88z m2410 10 l-9 -45 -1 47 c-1
51 12 100 17 63 1 -11 -2 -40 -7 -65z m-51 26 c0 -3 -4 -8 -10 -11 -5 -3 -10
-1 -10 4 0 6 5 11 10 11 6 0 10 -2 10 -4z m-5650 -51 c-7 -9 -15 -13 -17 -11
-7 7 7 26 19 26 6 0 6 -6 -2 -15z m-49 -48 c-10 -9 -11 -8 -5 6 3 10 9 15 12
12 3 -3 0 -11 -7 -18z m5730 -28 l-9 -34 -1 31 c-1 17 2 34 6 37 12 13 14 -1
4 -34z m-5787 -31 c-16 -18 -30 -35 -31 -37 -2 -2 -3 0 -3 6 0 15 40 63 53 63
6 0 -2 -15 -19 -32z m3383 -30 c-2 -13 -4 -3 -4 22 0 25 2 35 4 23 2 -13 2
-33 0 -45z m2373 36 c0 -8 -5 -12 -10 -9 -6 4 -8 11 -5 16 9 14 15 11 15 -7z
m-5353 -10 c-3 -3 -12 -4 -19 -1 -8 3 -5 6 6 6 11 1 17 -2 13 -5z m806 -51
c-7 -2 -19 -2 -25 0 -7 3 -2 5 12 5 14 0 19 -2 13 -5z m422 -24 c50 -5 124 -9
165 -9 41 0 82 -5 90 -11 11 -7 -15 -8 -90 -3 -58 3 -187 12 -287 18 -100 6
-185 15 -190 20 -8 9 157 1 312 -15z m4130 -29 c-19 -21 -17 -23 32 -20 25 1
35 -5 49 -27 10 -15 43 -56 72 -90 30 -35 51 -63 47 -63 -4 0 8 -13 28 -28
100 -80 237 -230 219 -241 -7 -4 -5 -13 5 -26 15 -19 15 -19 8 5 -6 20 3 15
49 -30 31 -30 56 -58 56 -61 0 -4 -9 -10 -20 -14 -15 -5 -36 11 -94 71 -42 43
-78 85 -81 95 -3 9 -15 19 -25 22 -16 4 -20 0 -21 -21 -1 -18 -4 -12 -10 18
-8 41 -25 60 -185 219 l-177 175 23 18 c30 24 48 23 25 -2z m-2388 -42 c-3 -7
-5 -2 -5 12 0 14 2 19 5 13 2 -7 2 -19 0 -25z m-102 -68 c3 -5 1 -10 -4 -10
-6 0 -11 5 -11 10 0 6 2 10 4 10 3 0 8 -4 11 -10z m-1925 -32 c0 -21 0 -21 14
-2 8 11 18 15 23 10 4 -5 2 -11 -4 -13 -7 -3 -13 -11 -13 -19 0 -13 -12 -18
-32 -15 -5 0 -8 -3 -8 -9 0 -5 -7 -10 -16 -10 -13 0 -14 3 -4 15 6 8 9 19 5
25 -10 16 2 40 20 40 9 0 15 -9 15 -22z m2426 -57 l25 -19 -23 -16 c-17 -12
-24 -13 -31 -3 -7 9 -10 9 -14 0 -6 -15 -33 -17 -33 -3 0 9 17 14 48 13 7 -1
11 4 9 11 -3 6 -10 10 -16 9 -6 -2 -11 4 -11 12 0 20 17 19 46 -4z m1263 3 c8
-7 -132 -2 -189 6 -36 5 -14 6 65 3 66 -3 122 -7 124 -9z m-2991 -22 c2 -12
-1 -22 -7 -22 -6 0 -11 4 -11 9 0 5 -3 17 -7 27 -4 12 -2 15 8 12 8 -2 15 -14
17 -26z m1137 18 c3 -5 1 -10 -4 -10 -6 0 -11 5 -11 10 0 6 2 10 4 10 3 0 8
-4 11 -10z m-1350 -10 c3 -5 1 -10 -4 -10 -6 0 -11 5 -11 10 0 6 2 10 4 10 3
0 8 -4 11 -10z m325 -1 c13 -9 13 -10 0 -6 -8 2 -20 -3 -27 -12 -6 -9 -15 -13
-19 -9 -7 8 13 38 25 38 3 0 13 -5 21 -11z m1403 -13 c26 -13 47 -19 47 -14 0
6 6 8 14 5 7 -3 17 -2 22 3 5 4 18 -1 29 -12 l20 -20 -24 7 c-18 6 -22 4 -15
-6 6 -11 5 -12 -7 -2 -9 7 -29 11 -45 9 -32 -4 -95 22 -102 42 -5 17 6 15 61
-12z m1869 7 c80 -4 108 -10 113 -21 4 -10 1 -12 -12 -7 -10 5 -124 16 -253
26 -192 15 -210 17 -95 13 77 -2 188 -7 247 -11z m-3767 -3 c-3 -5 -10 -10
-16 -10 -5 0 -9 5 -9 10 0 6 7 10 16 10 8 0 12 -4 9 -10z m76 -13 c-6 -8 -7
-18 -3 -23 4 -4 -1 -2 -10 5 -20 15 -15 31 9 31 12 0 13 -3 4 -13z m-41 -7 c0
-5 -10 -10 -22 -9 -22 0 -22 1 -3 9 11 5 21 9 23 9 1 1 2 -3 2 -9z m1551 -2
c0 -10 2 -10 6 0 2 6 9 10 13 7 5 -3 7 -12 4 -20 -4 -10 -12 -12 -30 -5 -15 6
-34 6 -51 -1 -27 -10 -27 -10 -8 10 20 23 65 28 66 9z m-1253 -28 c-1 -29 -11
-39 -22 -22 -7 12 4 52 14 52 5 0 8 -13 8 -30z m1446 14 c17 -16 21 -34 8 -34
-13 0 -52 30 -52 41 0 14 27 11 44 -7z m-1744 -24 c0 -5 -7 -7 -15 -4 -8 4
-15 1 -15 -5 0 -6 6 -11 14 -11 15 0 28 -24 19 -34 -4 -3 -17 -6 -29 -6 -21 0
-23 3 -17 33 6 33 21 50 35 41 4 -3 8 -9 8 -14z m97 14 c-3 -3 -12 -4 -19 -1
-8 3 -5 6 6 6 11 1 17 -2 13 -5z m150 -16 c-3 -8 -6 -5 -6 6 -1 11 2 17 5 13
3 -3 4 -12 1 -19z m1390 6 c-3 -3 -12 -4 -19 -1 -8 3 -5 6 6 6 11 1 17 -2 13
-5z m2263 -24 c12 -16 19 -30 16 -30 -8 0 -56 46 -56 54 0 15 21 3 40 -24z
m-4143 -2 c-3 -8 -6 -5 -6 6 -1 11 2 17 5 13 3 -3 4 -12 1 -19z m320 16 c-3
-3 -12 -4 -19 -1 -8 3 -5 6 6 6 11 1 17 -2 13 -5z m123 -4 c0 -5 -5 -10 -11
-10 -5 0 -7 5 -4 10 3 6 8 10 11 10 2 0 4 -4 4 -10z m145 0 c3 -5 1 -10 -4
-10 -6 0 -11 5 -11 10 0 6 2 10 4 10 3 0 8 -4 11 -10z m1740 -4 c12 -12 12
-16 -2 -28 -14 -11 -16 -11 -11 3 4 9 1 22 -5 28 -6 6 -8 11 -3 11 4 0 14 -6
21 -14z m-2611 -28 c6 -4 7 -10 3 -15 -10 -9 -27 16 -26 37 1 13 1 13 6 0 3
-8 11 -18 17 -22z m752 7 c-6 -16 21 -55 39 -55 7 0 12 -10 11 -25 0 -14 -7
-25 -14 -25 -7 0 -11 4 -8 8 2 4 1 14 -5 22 -6 11 -9 8 -9 -12 0 -26 12 -34
43 -29 4 0 7 -6 7 -14 0 -20 -37 -38 -66 -31 -19 5 -22 3 -17 -11 4 -11 3 -14
-5 -9 -7 4 -12 2 -12 -5 0 -7 -6 -5 -13 5 -12 17 -14 17 -20 2 -4 -9 -11 -16
-17 -16 -6 0 -8 5 -5 11 4 5 4 22 0 37 -5 20 -8 23 -16 11 -5 -7 -9 -9 -9 -4
0 20 20 41 28 28 4 -6 16 -13 27 -15 17 -2 20 2 17 30 -3 25 0 32 15 32 15 0
16 -2 3 -11 -11 -8 -12 -12 -2 -16 6 -2 12 -11 12 -19 0 -8 5 -14 11 -14 14 0
5 83 -9 88 -4 1 -7 16 -4 32 2 16 9 27 14 24 5 -3 7 -12 4 -19z m1828 4 c-6
-11 -24 -2 -24 11 0 5 7 7 15 4 8 -4 12 -10 9 -15z m-394 -9 c0 -5 -4 -10 -10
-10 -5 0 -10 5 -10 10 0 6 5 10 10 10 6 0 10 -4 10 -10z m40 0 c0 -5 -7 -10
-15 -10 -8 0 -15 5 -15 10 0 6 7 10 15 10 8 0 15 -4 15 -10z m-2458 -22 c-7
-7 -12 -8 -12 -2 0 14 12 26 19 19 2 -3 -1 -11 -7 -17z m818 -1 c10 -4 8 -6
-7 -6 -16 -1 -23 5 -23 17 0 10 3 13 8 6 4 -6 14 -14 22 -17z m1460 -7 c0 -5
-4 -10 -10 -10 -5 0 -10 5 -10 10 0 6 5 10 10 10 6 0 10 -4 10 -10z m1220 1
c0 -12 -29 -23 -42 -15 -6 4 -5 10 3 15 18 11 39 11 39 0z m1127 3 c-3 -3 -12
-4 -19 -1 -8 3 -5 6 6 6 11 1 17 -2 13 -5z m-3754 -11 c-7 -2 -19 -2 -25 0 -7
3 -2 5 12 5 14 0 19 -2 13 -5z m1540 -34 c-8 -29 -13 -23 -13 14 0 22 3 28 9
18 5 -7 6 -22 4 -32z m-1497 4 c-11 -11 -35 -12 -42 -2 -3 5 7 9 22 9 15 0 24
-3 20 -7z m2504 -3 c0 -5 -5 -10 -11 -10 -5 0 -7 5 -4 10 3 6 8 10 11 10 2 0
4 -4 4 -10z m290 -5 c0 -8 -4 -15 -9 -15 -13 0 -22 16 -14 24 11 11 23 6 23
-9z m-1740 -4 c0 -4 17 -7 38 -5 55 5 7 -13 -58 -22 -41 -5 -50 -4 -50 9 0 8
6 18 13 20 20 9 57 8 57 -2z m380 0 c0 -5 -7 -14 -15 -21 -12 -10 -15 -10 -15
2 0 8 3 18 7 21 9 10 23 9 23 -2z m410 -1 c-8 -5 -22 -9 -30 -9 -10 0 -8 3 5
9 27 12 43 12 25 0z m775 0 c3 -5 1 -10 -4 -10 -6 0 -11 5 -11 10 0 6 2 10 4
10 3 0 8 -4 11 -10z m-960 -10 c3 -5 -3 -10 -15 -10 -12 0 -18 5 -15 10 3 6
10 10 15 10 5 0 12 -4 15 -10z m135 6 c0 -3 -4 -8 -10 -11 -5 -3 -10 -1 -10 4
0 6 5 11 10 11 6 0 10 -2 10 -4z m-479 -18 c36 -2 37 -2 20 -25 -17 -23 -31
-30 -31 -14 0 5 6 11 13 14 6 2 9 8 5 12 -4 4 -19 0 -32 -9 -16 -10 -27 -12
-31 -6 -4 6 -10 8 -15 5 -4 -3 -6 4 -3 15 4 13 11 19 22 16 9 -3 32 -6 52 -8z
m-3323 -5 c-10 -2 -28 -2 -40 0 -13 2 -5 4 17 4 22 1 32 -1 23 -4z m4680 -10
c25 -3 42 -11 42 -19 0 -13 -15 -13 -98 0 -42 7 -54 14 -46 28 3 5 18 7 33 4
14 -4 45 -9 69 -13z m93 -6 c-10 -9 -11 -8 -5 6 3 10 9 15 12 12 3 -3 0 -11
-7 -18z m-1131 9 c0 -3 -4 -8 -10 -11 -5 -3 -10 -1 -10 4 0 6 5 11 10 11 6 0
10 -2 10 -4z m250 0 c0 -2 -7 -6 -15 -10 -8 -3 -15 -1 -15 4 0 6 7 10 15 10 8
0 15 -2 15 -4z m678 -38 c-5 -15 -23 -11 -26 6 -2 11 2 14 13 10 9 -4 14 -11
13 -16z m298 13 c-3 -5 -15 -7 -26 -4 -28 7 -25 13 6 13 14 0 23 -4 20 -9z
m-1496 -11 c0 -5 -7 -10 -15 -10 -8 0 -15 5 -15 10 0 6 7 10 15 10 8 0 15 -4
15 -10z m2857 -37 c-3 -10 -5 -2 -5 17 0 19 2 27 5 18 2 -10 2 -26 0 -35z
m-2435 10 c-19 -7 14 -28 57 -38 24 -5 30 -10 20 -15 -24 -12 -89 -19 -89 -9
0 5 -7 9 -15 9 -8 0 -15 5 -15 10 0 6 10 10 22 10 16 0 19 3 11 11 -6 6 -8 20
-6 31 4 15 8 16 17 7 8 -8 8 -13 -2 -16z m1373 7 c3 -5 -3 -10 -15 -10 -12 0
-18 5 -15 10 3 6 10 10 15 10 5 0 12 -4 15 -10z m-205 -10 c0 -5 -4 -10 -9
-10 -6 0 -13 5 -16 10 -3 6 1 10 9 10 9 0 16 -4 16 -10z m-1363 -6 c-3 -3 -12
-4 -19 -1 -8 3 -5 6 6 6 11 1 17 -2 13 -5z m43 -4 c0 -5 -7 -10 -15 -10 -8 0
-15 5 -15 10 0 6 7 10 15 10 8 0 15 -4 15 -10z m30 -4 c0 -3 -4 -8 -10 -11 -5
-3 -10 -1 -10 4 0 6 5 11 10 11 6 0 10 -2 10 -4z m1025 -6 c3 -5 1 -10 -4 -10
-6 0 -11 5 -11 10 0 6 2 10 4 10 3 0 8 -4 11 -10z m-798 -22 c-3 -8 -6 -5 -6
6 -1 11 2 17 5 13 3 -3 4 -12 1 -19z m573 -12 c0 -3 -4 -8 -10 -11 -5 -3 -10
-1 -10 4 0 6 5 11 10 11 6 0 10 -2 10 -4z m168 -35 c3 -20 1 -21 -18 -11 -19
10 -20 10 -12 -7 6 -10 9 -22 9 -28 -1 -5 9 -12 22 -13 13 -2 30 -10 37 -17
11 -10 7 -14 -19 -21 l-32 -8 44 -4 c23 -2 55 1 70 6 17 6 34 4 51 -5 14 -7
48 -12 75 -11 33 1 40 2 20 5 -16 3 -34 12 -41 20 -6 9 -16 13 -22 9 -15 -9
-15 -1 -2 25 13 22 35 26 26 4 -5 -13 5 -15 60 -14 53 1 68 -2 80 -17 14 -18
15 -18 30 4 9 12 24 22 33 22 11 -1 4 -11 -21 -34 l-38 -33 233 -17 c127 -9
282 -21 342 -26 99 -8 296 -22 523 -35 l83 -5 -27 37 c-27 37 -27 37 18 -7 26
-25 43 -49 38 -53 -4 -5 -50 -4 -101 2 -52 6 -206 18 -344 26 -137 8 -385 24
-550 35 -165 10 -421 27 -570 36 -148 9 -272 18 -275 21 -3 3 4 11 15 18 36
25 65 59 65 77 0 21 16 32 25 17 4 -5 13 -8 21 -5 8 3 14 1 14 -5 0 -6 7 -9
15 -5 14 5 19 -5 16 -31 -1 -7 3 -13 9 -13 6 0 8 5 5 10 -3 6 -2 10 4 10 5 0
11 -6 14 -12 2 -7 4 -1 3 14 0 14 -4 24 -7 22 -9 -5 -32 23 -26 33 3 4 27 7
54 7 41 -1 48 -4 51 -23z m-863 -1 c3 -5 1 -10 -4 -10 -6 0 -11 5 -11 10 0 6
2 10 4 10 3 0 8 -4 11 -10z m85 0 c0 -5 -5 -10 -11 -10 -5 0 -7 5 -4 10 3 6 8
10 11 10 2 0 4 -4 4 -10z m900 -20 c0 -11 -2 -20 -4 -20 -2 0 -6 9 -9 20 -3
11 -1 20 4 20 5 0 9 -9 9 -20z m276 -27 c-10 -10 -19 5 -10 18 6 11 8 11 12 0
2 -7 1 -15 -2 -18z m61 -53 c-1 -22 -12 -26 -23 -9 -3 6 0 15 7 20 18 12 18
12 16 -11z m-5137 -123 c0 -2 -12 -14 -27 -28 l-28 -24 24 28 c23 25 31 32 31
24z m-90 -112 c-32 -46 -44 -57 -34 -30 5 11 2 13 -10 9 -9 -3 -16 -10 -16
-15 0 -5 -7 -9 -15 -9 -24 0 -66 -46 -59 -64 4 -11 0 -16 -11 -16 -14 0 -12 8
12 51 32 59 79 99 116 99 14 0 29 5 32 10 3 6 8 10 11 10 3 0 -9 -20 -26 -45z
m-189 -168 c-13 -12 -20 -15 -16 -7 14 26 28 41 33 35 3 -3 -5 -16 -17 -28z
m39 -21 c0 -2 -7 -9 -15 -16 -13 -11 -14 -10 -9 4 5 14 24 23 24 12z m6500
-31 c7 -9 8 -15 2 -15 -5 0 -12 7 -16 15 -3 8 -4 15 -2 15 2 0 9 -7 16 -15z
m-6590 -15 c-6 -11 -16 -20 -22 -20 -6 0 -3 9 7 20 10 11 20 20 22 20 2 0 -1
-9 -7 -20z m1410 -20 c124 -6 245 -16 270 -20 35 -7 23 -8 -50 -5 -211 10
-585 37 -590 42 -3 3 29 3 70 0 41 -3 176 -11 300 -17z m668 -41 c78 -7 140
-14 138 -17 -3 -2 -90 1 -193 7 -103 7 -212 13 -240 14 -29 1 -53 5 -53 9 0 9
148 3 348 -13z m-2068 8 c0 -2 -17 -19 -37 -38 l-38 -34 34 38 c33 34 41 42
41 34z m2469 -33 c13 -11 -15 -13 -102 -7 -53 3 -97 9 -97 14 0 7 190 0 199
-7z m-2603 -71 c-14 -26 -56 -69 -56 -57 0 6 62 84 67 84 2 0 -3 -12 -11 -27z
m54 12 c-7 -9 -15 -13 -19 -10 -3 3 1 10 9 15 21 14 24 12 10 -5z m3445 -5
c39 -4 60 -8 48 -9 -13 0 -22 -4 -20 -8 1 -5 -2 -8 -8 -8 -5 0 -9 2 -8 5 1 3
-14 6 -33 7 -24 1 -34 -3 -34 -13 0 -8 -6 -14 -13 -14 -21 0 -28 12 -16 27 9
10 4 13 -26 13 -29 0 -36 -3 -31 -15 3 -8 1 -15 -4 -15 -5 0 -10 -9 -12 -20
-3 -19 -5 -19 -32 -5 -15 8 -36 15 -45 15 -14 0 -14 2 -1 10 13 8 12 10 -4 10
-12 0 -16 5 -13 14 4 11 1 13 -11 10 -15 -5 -15 -4 -2 6 15 11 89 8 265 -10z
m-1115 -10 c0 -5 -4 -10 -10 -10 -5 0 -10 5 -10 10 0 6 5 10 10 10 6 0 10 -4
10 -10z m1250 -5 c0 -2 -13 -5 -28 -7 -17 -2 -29 1 -29 7 0 6 12 9 29 7 15 -2
28 -5 28 -7z m-417 -10 c4 -8 2 -17 -3 -20 -6 -4 -10 -4 -10 -1 0 2 -3 11 -6
20 -3 9 -2 16 4 16 5 0 12 -7 15 -15z m663 3 c51 -1 95 -21 79 -35 -4 -5 -10
-2 -12 5 -3 6 -9 12 -15 12 -6 0 -3 -9 7 -20 18 -19 17 -20 -3 -20 -15 0 -22
6 -22 20 0 14 -7 20 -22 21 -13 1 -52 4 -88 6 -36 3 -86 5 -112 5 -27 0 -48 4
-48 10 0 7 31 8 93 4 50 -4 115 -7 143 -8z m-316 -2 c0 -3 -4 -8 -10 -11 -5
-3 -10 -1 -10 4 0 6 5 11 10 11 6 0 10 -2 10 -4z m590 -17 c0 -5 -10 -9 -22
-10 -13 0 -17 -3 -10 -6 9 -3 10 -9 2 -18 -5 -7 -9 -23 -8 -35 2 -13 -2 -25
-8 -27 -16 -5 -28 48 -14 57 9 6 9 9 0 15 -9 6 -9 10 1 16 10 6 3 9 -19 9 -18
0 -31 3 -29 8 7 10 107 2 107 -9z m-120 1 c0 -6 -11 -8 -27 -4 -40 10 -41 14
-5 14 18 0 32 -5 32 -10z m-638 -22 c-5 -5 -17 -6 -26 -2 -13 5 -14 9 -5 14
16 11 43 0 31 -12z m248 6 c0 -14 -3 -14 -15 -4 -8 7 -15 14 -15 16 0 2 7 4
15 4 8 0 15 -7 15 -16z m200 6 c0 -5 -12 -10 -27 -9 -25 0 -26 1 -8 9 27 12
35 12 35 0z m535 -5 c77 -7 121 -13 98 -14 -36 -1 -43 -4 -43 -21 0 -11 7 -23
15 -26 8 -4 15 -14 15 -23 0 -12 -2 -13 -8 -3 -5 7 -16 10 -24 7 -11 -4 -18 0
-23 14 -8 26 -41 23 -56 -6 -11 -21 -13 -21 -25 -5 -18 23 -18 46 0 39 11 -4
13 -1 9 10 -4 11 -2 14 5 9 7 -4 12 -2 12 3 0 17 -32 13 -46 -6 -12 -16 -13
-16 -8 -1 4 12 -3 17 -35 23 -22 4 -55 4 -72 0 -22 -5 -29 -4 -25 4 9 13 31
13 211 -4z m-1200 -5 c3 -5 -1 -10 -9 -10 -9 0 -16 5 -16 10 0 6 4 10 9 10 6
0 13 -4 16 -10z m278 3 c-7 -2 -19 -2 -25 0 -7 3 -2 5 12 5 14 0 19 -2 13 -5z
m-319 -25 c-8 -27 -12 -33 -19 -27 -7 8 7 49 17 49 5 0 6 -10 2 -22z m876 12
c0 -5 -4 -10 -10 -10 -5 0 -10 5 -10 10 0 6 5 10 10 10 6 0 10 -4 10 -10z
m-190 -10 c0 -5 14 -10 30 -10 17 0 30 -5 30 -11 0 -6 -9 -8 -20 -4 -15 5 -23
0 -32 -19 -6 -14 -17 -26 -25 -26 -17 0 -16 10 2 34 11 14 12 23 4 33 -8 9 -8
13 0 13 6 0 11 -4 11 -10z m435 0 c3 -5 1 -10 -4 -10 -6 0 -11 5 -11 10 0 6 2
10 4 10 3 0 8 -4 11 -10z m-825 -13 c0 -6 -3 -8 -6 -4 -3 3 -20 -3 -38 -13
-18 -10 -47 -17 -64 -16 -35 1 -57 16 -24 16 26 0 53 10 48 19 -2 3 16 6 40 7
24 0 44 -4 44 -9z m790 -1 c0 -6 -14 -11 -30 -12 -17 -1 -30 4 -30 11 0 6 13
12 30 12 17 0 30 -5 30 -11z m320 -1 c0 -19 -6 -19 -14 0 -3 8 -1 15 4 15 6 0
10 -7 10 -15z m715 -9 l130 -14 -175 4 c-96 3 -188 7 -205 9 -16 3 -55 7 -85
11 -30 3 -57 9 -60 11 -7 8 246 -6 395 -21z m-2080 4 c3 -5 17 -10 31 -10 13
0 24 -4 24 -10 0 -15 -49 -12 -66 4 -8 8 -14 17 -14 20 0 10 18 7 25 -4z m825
-10 c0 -13 -11 -13 -30 0 -12 8 -11 10 8 10 12 0 22 -4 22 -10z m-515 -10 c3
-5 2 -10 -4 -10 -5 0 -13 5 -16 10 -3 6 -2 10 4 10 5 0 13 -4 16 -10z m-80
-10 c3 -5 -3 -10 -15 -10 -12 0 -18 5 -15 10 3 6 10 10 15 10 5 0 12 -4 15
-10z m1145 0 c0 -5 -8 -10 -17 -10 -15 0 -16 2 -3 10 19 12 20 12 20 0z m948
3 c-16 -2 -40 -2 -55 0 -16 2 -3 4 27 4 30 0 43 -2 28 -4z m149 -9 c-3 -3 -12
-4 -19 -1 -8 3 -5 6 6 6 11 1 17 -2 13 -5z"/>
<path d="M3780 5050 c0 -5 5 -10 10 -10 6 0 10 5 10 10 0 6 -4 10 -10 10 -5 0
-10 -4 -10 -10z"/>
<path d="M3635 5009 c-4 -6 -5 -12 -2 -15 2 -3 7 2 10 11 7 17 1 20 -8 4z"/>
<path d="M4711 4894 c0 -11 3 -14 6 -6 3 7 2 16 -1 19 -3 4 -6 -2 -5 -13z"/>
<path d="M4080 4848 c0 -4 14 -8 32 -8 17 0 28 3 24 8 -10 10 -56 10 -56 0z"/>
<path d="M4690 4811 c0 -5 7 -11 14 -14 10 -4 13 -1 9 9 -6 15 -23 19 -23 5z"/>
<path d="M4185 4790 c-19 -8 -19 -9 3 -9 22 -1 22 -2 7 -17 -20 -20 -16 -25
13 -17 15 3 22 13 22 29 0 25 -11 28 -45 14z"/>
<path d="M4128 4763 c7 -3 16 -2 19 1 4 3 -2 6 -13 5 -11 0 -14 -3 -6 -6z"/>
<path d="M4595 4761 c-3 -6 0 -17 7 -25 12 -12 18 -12 39 1 13 8 17 12 9 10
-8 -2 -22 2 -32 10 -11 10 -18 11 -23 4z"/>
<path d="M4735 4715 c21 -8 41 -12 44 -10 5 6 -47 25 -67 25 -9 -1 1 -7 23
-15z"/>
<path d="M4380 4675 c0 -8 4 -15 10 -15 5 0 7 7 4 15 -4 8 -8 15 -10 15 -2 0
-4 -7 -4 -15z"/>
<path d="M4357 4673 c-11 -10 -8 -63 3 -63 6 0 10 16 10 35 0 36 -2 40 -13 28z"/>
<path d="M4548 4673 c-22 -5 -24 -43 -3 -43 8 0 15 -9 15 -20 0 -11 3 -20 8
-20 18 1 27 17 27 50 0 35 -11 43 -47 33z"/>
<path d="M4714 4663 c-3 -10 -10 -26 -15 -35 -11 -22 -12 -65 0 -72 10 -6 33
42 26 54 -3 5 -1 20 5 34 6 16 6 27 0 31 -6 4 -13 -2 -16 -12z"/>
<path d="M4611 4647 c-16 -20 -2 -50 19 -37 10 6 11 14 4 30 -9 20 -11 20 -23
7z"/>
<path d="M4811 4643 c7 -12 15 -20 18 -17 3 2 -3 12 -13 22 -17 16 -18 16 -5
-5z"/>
<path d="M4397 4639 c-10 -6 -15 -15 -11 -21 4 -7 9 -6 14 2 5 7 13 -5 23 -33
8 -25 11 -49 6 -54 -13 -13 1 -52 17 -46 8 3 14 1 14 -5 0 -6 -4 -12 -9 -14
-5 -1 -6 -18 -4 -36 7 -40 39 -42 37 -2 -1 14 1 17 3 7 5 -20 39 -19 37 1 -1
6 -2 23 -2 37 -2 29 -14 32 -36 10 -14 -14 -16 -13 -22 10 -3 13 -10 23 -14
20 -5 -3 -11 -1 -15 5 -3 5 -1 10 4 10 6 0 11 12 11 26 0 23 2 25 15 14 13
-11 13 -15 3 -23 -9 -6 -8 -7 5 -3 10 3 21 6 23 6 2 0 4 5 4 11 0 5 -4 8 -9 4
-6 -3 -9 7 -8 22 2 25 -1 28 -28 25 -21 -2 -26 0 -16 6 9 7 10 12 2 16 -6 4
-11 4 -11 -1 0 -4 -4 -3 -8 4 -5 8 -13 8 -25 2z"/>
<path d="M4835 4610 c-8 -13 -1 -24 14 -19 6 3 7 10 2 18 -6 10 -10 10 -16 1z"/>
<path d="M4390 4580 c0 -5 5 -10 11 -10 5 0 7 5 4 10 -3 6 -8 10 -11 10 -2 0
-4 -4 -4 -10z"/>
<path d="M4855 4570 c-3 -5 -2 -10 4 -10 5 0 13 5 16 10 3 6 2 10 -4 10 -5 0
-13 -4 -16 -10z"/>
<path d="M4395 4518 c7 -58 15 -60 15 -5 0 26 -5 47 -10 47 -6 0 -8 -17 -5
-42z"/>
<path d="M4607 4543 c-22 -12 -27 -20 -23 -36 3 -12 6 -28 6 -36 0 -11 3 -11
15 -1 8 7 15 26 15 42 0 17 4 27 10 23 6 -3 10 1 10 9 0 9 -1 16 -2 15 -2 -1
-16 -8 -31 -16z"/>
<path d="M4890 4552 c-24 -7 -60 -53 -59 -76 0 -12 3 -15 6 -9 3 8 14 11 29 7
15 -4 24 -2 24 5 0 6 -6 11 -12 11 -7 0 -2 9 11 19 25 19 26 51 1 43z"/>
<path d="M4360 4538 c0 -7 -3 -23 -6 -35 -5 -17 -2 -23 9 -23 11 0 15 10 14
35 -1 19 -5 35 -9 35 -4 0 -8 -6 -8 -12z"/>
<path d="M4746 4481 c-4 -7 -5 -15 -2 -18 9 -9 19 4 14 18 -4 11 -6 11 -12 0z"/>
<path d="M4520 4400 c0 -5 5 -10 11 -10 5 0 7 5 4 10 -3 6 -8 10 -11 10 -2 0
-4 -4 -4 -10z"/>
<path d="M4465 4370 c-3 -5 -2 -10 4 -10 5 0 13 5 16 10 3 6 2 10 -4 10 -5 0
-13 -4 -16 -10z"/>
<path d="M4523 4362 c-12 -8 -6 -62 7 -62 4 0 10 10 14 23 12 44 6 56 -21 39z"/>
<path d="M3387 4535 c-15 -14 -27 -29 -27 -32 0 -4 3 -3 7 0 3 4 12 2 20 -4
14 -13 46 9 64 43 15 29 -31 23 -64 -7z"/>
<path d="M4985 4310 c3 -5 8 -10 11 -10 2 0 4 5 4 10 0 6 -5 10 -11 10 -5 0
-7 -4 -4 -10z"/>
<path d="M4870 4163 c-13 -15 -12 -16 4 -10 10 4 22 7 27 7 5 0 9 5 9 10 0 15
-23 11 -40 -7z"/>
<path d="M4850 4115 c0 -18 4 -23 15 -19 8 4 15 15 15 25 0 10 -7 19 -15 19
-9 0 -15 -9 -15 -25z"/>
<path d="M4802 4085 c0 -16 2 -22 5 -12 2 9 2 23 0 30 -3 6 -5 -1 -5 -18z"/>
<path d="M4822 4090 c0 -14 2 -19 5 -12 2 6 2 18 0 25 -3 6 -5 1 -5 -13z"/>
<path d="M4965 3949 c-4 -6 -5 -13 -2 -16 7 -7 27 6 27 18 0 12 -17 12 -25 -2z"/>
<path d="M5000 3951 c0 -5 5 -13 10 -16 6 -3 10 -2 10 4 0 5 -4 13 -10 16 -5
3 -10 2 -10 -4z"/>
<path d="M4170 4000 c-9 -6 -10 -10 -3 -10 6 0 15 5 18 10 8 12 4 12 -15 0z"/>
<path d="M3256 3624 c-5 -13 -1 -15 19 -12 14 3 25 1 25 -3 0 -5 9 -9 20 -9
22 0 28 18 8 24 -48 15 -66 15 -72 0z"/>
<path d="M4626 3248 c3 -4 9 -8 15 -8 5 0 9 4 9 8 0 5 -7 9 -15 9 -8 0 -12 -4
-9 -9z"/>
<path d="M4820 3085 c0 -8 5 -15 10 -15 6 0 10 7 10 15 0 8 -4 15 -10 15 -5 0
-10 -7 -10 -15z"/>
<path d="M3130 3210 c20 -13 40 -13 40 0 0 6 -12 10 -27 10 -22 0 -25 -2 -13
-10z"/>
<path d="M3185 3190 c4 -6 11 -8 16 -5 14 9 11 15 -7 15 -8 0 -12 -5 -9 -10z"/>
<path d="M3168 2913 c7 -3 16 -2 19 1 4 3 -2 6 -13 5 -11 0 -14 -3 -6 -6z"/>
<path d="M2860 2701 c0 -5 -3 -16 -6 -25 -4 -11 -1 -16 10 -16 10 0 16 9 16
25 0 14 -4 25 -10 25 -5 0 -10 -4 -10 -9z"/>
<path d="M4790 2635 c0 -8 2 -15 4 -15 2 0 6 7 10 15 3 8 1 15 -4 15 -6 0 -10
-7 -10 -15z"/>
<path d="M3215 2630 c3 -5 8 -10 11 -10 2 0 4 5 4 10 0 6 -5 10 -11 10 -5 0
-7 -4 -4 -10z"/>
<path d="M4750 2611 c0 -6 -4 -11 -9 -11 -6 0 -22 -11 -37 -25 -19 -18 -24
-29 -17 -36 8 -8 13 -8 17 0 11 17 26 13 20 -4 -4 -8 -12 -15 -20 -15 -8 0
-14 -4 -14 -10 0 -15 32 -11 55 6 20 15 20 15 -5 36 -27 23 -29 23 42 1 l21
-6 -22 22 c-12 12 -19 26 -16 31 3 5 1 11 -5 15 -5 3 -10 1 -10 -4z"/>
<path d="M4790 2589 c0 -5 4 -8 9 -5 5 3 12 -4 16 -17 4 -14 8 -17 12 -9 5 14
-14 42 -28 42 -5 0 -9 -5 -9 -11z"/>
<path d="M2881 2524 c0 -11 3 -14 6 -6 3 7 2 16 -1 19 -3 4 -6 -2 -5 -13z"/>
<path d="M2915 2420 c3 -5 8 -10 11 -10 2 0 4 5 4 10 0 6 -5 10 -11 10 -5 0
-7 -4 -4 -10z"/>
<path d="M3328 2223 c6 -2 18 -2 25 0 6 3 1 5 -13 5 -14 0 -19 -2 -12 -5z"/>
<path d="M4620 2056 c0 -9 5 -16 10 -16 6 0 10 4 10 9 0 6 -4 13 -10 16 -5 3
-10 -1 -10 -9z"/>
<path d="M3668 2033 c17 -2 47 -2 65 0 17 2 3 4 -33 4 -36 0 -50 -2 -32 -4z"/>
<path d="M3250 1828 c-70 -35 -96 -55 -86 -65 3 -4 12 -1 18 5 7 7 24 12 39
12 15 0 30 4 33 9 12 19 84 23 134 7 70 -20 86 -3 30 32 -58 36 -95 36 -168 0z"/>
<path d="M3455 1770 c-3 -5 1 -10 10 -10 9 0 13 5 10 10 -3 6 -8 10 -10 10 -2
0 -7 -4 -10 -10z"/>
<path d="M4655 1710 l-20 -9 20 0 c11 0 29 4 40 9 l20 9 -20 0 c-11 0 -29 -4
-40 -9z"/>
<path d="M3220 1551 c0 -5 -9 -13 -20 -16 -13 -4 -20 -15 -20 -32 0 -31 20
-26 38 10 7 15 17 27 23 27 5 0 9 5 9 10 0 6 -7 10 -15 10 -8 0 -15 -4 -15 -9z"/>
<path d="M3539 1531 c13 -12 33 -21 45 -21 11 0 31 -3 43 -6 18 -5 21 -3 16
14 -4 17 -9 19 -27 12 -12 -4 -29 -4 -37 0 -7 4 -25 11 -39 14 l-25 7 24 -20z"/>
<path d="M3236 1508 c4 -6 -6 -21 -21 -34 -16 -13 -26 -26 -24 -28 5 -5 88 56
89 64 0 3 -11 6 -25 6 -14 1 -22 -2 -19 -8z"/>
<path d="M3284 1485 c-10 -8 -14 -15 -8 -15 6 0 17 7 24 15 16 19 9 19 -16 0z"/>
<path d="M3405 1439 c-29 -4 -33 -7 -15 -9 14 -1 31 -2 39 -1 7 2 10 -2 6 -8
-3 -6 -1 -11 4 -11 6 0 11 4 11 10 0 5 8 7 18 3 9 -3 15 -4 12 -2 -22 19 -40
24 -75 18z"/>
<path d="M4724 1425 c-18 -15 -18 -15 5 -13 14 2 26 9 29 16 5 17 -10 15 -34
-3z"/>
<path d="M3848 1383 c7 -3 16 -2 19 1 4 3 -2 6 -13 5 -11 0 -14 -3 -6 -6z"/>
<path d="M3225 1310 c-3 -5 -1 -10 4 -10 6 0 11 5 11 10 0 6 -2 10 -4 10 -3 0
-8 -4 -11 -10z"/>
<path d="M3055 1170 c-3 -5 -2 -10 4 -10 5 0 13 5 16 10 3 6 2 10 -4 10 -5 0
-13 -4 -16 -10z"/>
<path d="M3461 1084 c0 -11 3 -14 6 -6 3 7 2 16 -1 19 -3 4 -6 -2 -5 -13z"/>
<path d="M3397 1029 c7 -7 15 -10 18 -7 3 3 -2 9 -12 12 -14 6 -15 5 -6 -5z"/>
<path d="M3792 982 c-16 -10 -5 -42 14 -42 8 0 14 5 14 11 0 5 5 7 10 4 6 -3
10 1 10 10 0 11 -5 15 -16 11 -8 -3 -12 -2 -9 4 7 12 -5 13 -23 2z"/>
<path d="M4072 978 c6 -18 22 -20 43 -3 19 14 18 14 -13 15 -22 0 -32 -4 -30
-12z"/>
<path d="M2370 960 l-25 -8 25 -1 c14 0 32 4 40 9 13 9 13 10 0 9 -8 -1 -26
-5 -40 -9z"/>
<path d="M4015 960 c4 -7 -3 -9 -22 -5 l-28 6 30 -14 c17 -8 50 -17 75 -20 41
-6 43 -6 26 8 -11 8 -28 15 -37 15 -10 0 -21 5 -24 10 -3 6 -11 10 -16 10 -6
0 -7 -5 -4 -10z"/>
<path d="M2686 951 c-18 -7 -18 -8 5 -14 35 -10 39 -9 33 8 -7 17 -10 17 -38
6z"/>
<path d="M3755 940 c3 -5 8 -10 11 -10 2 0 4 5 4 10 0 6 -5 10 -11 10 -5 0 -7
-4 -4 -10z"/>
<path d="M3848 925 c-4 -17 -1 -25 8 -25 8 0 14 9 14 19 0 30 -17 34 -22 6z"/>
<path d="M4120 936 c0 -14 29 -30 38 -21 3 3 0 5 -6 5 -7 0 -12 7 -12 15 0 8
-4 15 -10 15 -5 0 -10 -6 -10 -14z"/>
<path d="M3704 915 c-10 -8 -14 -15 -8 -15 6 0 17 7 24 15 16 19 9 19 -16 0z"/>
<path d="M3628 903 c7 -3 16 -2 19 1 4 3 -2 6 -13 5 -11 0 -14 -3 -6 -6z"/>
<path d="M4236 892 c-3 -6 -1 -14 5 -17 14 -9 20 -2 10 14 -6 8 -11 9 -15 3z"/>
<path d="M4075 883 c17 -3 34 -9 40 -14 5 -5 15 -9 23 -9 11 0 11 3 -2 15 -8
9 -30 14 -53 14 -34 -2 -35 -2 -8 -6z"/>
<path d="M6210 2375 c12 -13 28 -21 34 -17 7 4 5 8 -6 10 -10 2 -18 10 -18 18
0 8 -8 14 -17 14 -14 0 -13 -4 7 -25z"/>
<path d="M6280 2335 c0 -8 79 -85 87 -85 11 0 -5 19 -44 54 -24 21 -43 35 -43
31z"/>
<path d="M575 1400 c-10 -11 -13 -20 -8 -20 13 0 38 29 31 35 -3 3 -13 -4 -23
-15z"/>
<path d="M6640 1316 c0 -2 8 -10 18 -17 15 -13 16 -12 3 4 -13 16 -21 21 -21
13z"/>
<path d="M6771 1171 c7 -10 21 -24 33 -31 15 -9 12 -3 -8 19 -34 35 -41 39
-25 12z"/>
<path d="M6900 1026 c0 -2 7 -7 16 -10 8 -3 12 -2 9 4 -6 10 -25 14 -25 6z"/>
<path d="M6980 950 c0 -5 5 -10 11 -10 5 0 7 5 4 10 -3 6 -8 10 -11 10 -2 0
-4 -4 -4 -10z"/>
<path d="M2065 1330 c-3 -5 -1 -10 4 -10 6 0 11 5 11 10 0 6 -2 10 -4 10 -3 0
-8 -4 -11 -10z"/>
<path d="M4380 930 c0 -5 5 -10 10 -10 6 0 10 5 10 10 0 6 -4 10 -10 10 -5 0
-10 -4 -10 -10z"/>
<path d="M5170 850 c0 -5 5 -10 10 -10 6 0 10 5 10 10 0 6 -4 10 -10 10 -5 0
-10 -4 -10 -10z"/>
<path d="M5029 823 c-12 -16 -12 -16 1 -6 12 9 19 8 34 -3 30 -21 42 -17 16 6
-28 24 -34 25 -51 3z"/>
<path d="M5185 800 c3 -5 12 -7 20 -3 21 7 19 13 -6 13 -11 0 -18 -4 -14 -10z"/>
<path d="M5528 793 c7 -3 16 -2 19 1 4 3 -2 6 -13 5 -11 0 -14 -3 -6 -6z"/>
<path d="M4470 90 c0 -7 24 -20 36 -20 13 0 1 19 -16 23 -11 3 -20 2 -20 -3z"/>
</g>
</svg>
