<svg width="298" height="339" viewBox="0 0 298 339" fill="none" xmlns="http://www.w3.org/2000/svg">
<path d="M82.1892 118.809L123.173 118.263L124.267 169.629L177.201 170.713L180.852 46.1055L185.919 45.8962C173.247 42.6135 159.92 40.9548 146.172 41.1708C67.1986 42.4148 2.24791 106.539 0.0585744 185.492C-1.60809 245.591 32.4466 297.888 82.5252 322.787L82.1892 302.965V118.809Z" fill="#0A4D46"/>
<path d="M220.668 59.8286L220.989 77.8247L218.391 259.869L177.723 258.305L177.819 210.067L106.233 207.882L123.72 224.275L123.173 335.206H118.424C130.877 337.773 143.897 338.787 157.276 338.019C232.456 333.702 293.253 272.387 296.935 197.173C299.821 138.191 268.276 86.318 220.668 59.8286Z" fill="#53C2B3"/>
<path d="M247.833 25.5812H232.364V9.6092H220.795V25.5812H206.332V35.8932H220.795V51.1105H232.364V35.8932H247.833V25.5812Z" fill="#53C2B3"/>
<path d="M194.916 29.9431H187.63V22.4191H182.179V29.9431H175.366V34.8004H182.179V41.9697H187.63V34.8004H194.916V29.9431Z" fill="#53C2B3"/>
<path d="M209.515 7.52399H202.228V-8.21205e-06H196.777V7.52399H189.964V12.3813H196.777V19.5507H202.228V12.3813H209.515V7.52399Z" fill="#0A4D46"/>
<path d="M256.723 54.4476H249.436V46.9236H243.986V54.4476H237.172V59.3049H243.986V66.4742H249.436V59.3049H256.723V54.4476Z" fill="#0A4D46"/>
</svg>
